<svg width="116" height="75" viewBox="0 0 116 75" fill="none" xmlns="http://www.w3.org/2000/svg">
<path d="M96.9375 0C99.0859 0 100.925 0.764974 102.455 2.29492C103.985 3.82487 104.75 5.66406 104.75 7.8125V67.1875C104.75 69.3359 103.985 71.1751 102.455 72.7051C100.925 74.235 99.0859 75 96.9375 75H18.8125C16.6641 75 14.8249 74.235 13.2949 72.7051C11.765 71.1751 11 69.3359 11 67.1875V7.8125C11 5.66406 11.765 3.82487 13.2949 2.29492C14.8249 0.764974 16.6641 0 18.8125 0H96.9375ZM18.8125 6.25C18.3893 6.25 18.0231 6.40462 17.7139 6.71387C17.4046 7.02311 17.25 7.38932 17.25 7.8125V18.75H98.5V7.8125C98.5 7.38932 98.3454 7.02311 98.0361 6.71387C97.7269 6.40462 97.3607 6.25 96.9375 6.25H18.8125ZM96.9375 68.75C97.3607 68.75 97.7269 68.5954 98.0361 68.2861C98.3454 67.9769 98.5 67.6107 98.5 67.1875V37.5H17.25V67.1875C17.25 67.6107 17.4046 67.9769 17.7139 68.2861C18.0231 68.5954 18.3893 68.75 18.8125 68.75H96.9375ZM23.5 62.5V56.25H36V62.5H23.5ZM42.25 62.5V56.25H61V62.5H42.25Z" fill="black"/>
</svg>
