<?xml version="1.0" encoding="utf-8"?>
<!-- Generator: Adobe Adobe Illustrator 24.2.0, SVG Export Plug-In . SVG Version: 6.00 Build 0)  -->
<svg version="1.1" xmlns="http://www.w3.org/2000/svg" xmlns:xlink="http://www.w3.org/1999/xlink" x="0px" y="0px" width="1550px"
	 height="200px" viewBox="0 0 1550 200" style="" xml:space="preserve">

<g id="HORIZONTAL">
	<g id="Black_horizontal">
		<g>
			<g>
				<path fill="white" d="M153.37,39.53v136.24h-10.02v-63.11H54.6v63.11H44.58V39.53H54.6v63.91h88.75V39.53H153.37z"/>
				<path fill="white" d="M324.95,57.66c13.82,13.69,20.74,30.35,20.74,49.99c0,19.63-6.91,36.3-20.74,49.99
					c-13.82,13.69-30.55,20.54-50.19,20.54c-19.63,0-36.36-6.84-50.19-20.54c-13.82-13.69-20.74-30.35-20.74-49.99
					c0-19.63,6.91-36.3,20.74-49.99c13.82-13.69,30.55-20.54,50.19-20.54C294.39,37.12,311.12,43.97,324.95,57.66z M317.84,150.82
					c11.75-11.82,17.63-26.21,17.63-43.17s-5.88-31.39-17.63-43.28c-11.75-11.89-26.11-17.83-43.07-17.83
					c-16.96,0-31.32,5.94-43.08,17.83c-11.75,11.89-17.63,26.31-17.63,43.28s5.88,31.35,17.63,43.17
					c11.75,11.82,26.11,17.73,43.08,17.73C291.72,168.55,306.08,162.64,317.84,150.82z"/>
				<path fill="white" d="M507.34,118.87c0,17.5-5.28,31.76-15.83,42.77c-10.55,11.02-24.31,16.53-41.27,16.53
					s-30.69-5.54-41.17-16.63c-10.48-11.09-15.73-25.31-15.73-42.67V39.53h10.02v79.34c0,14.43,4.34,26.35,13.02,35.76
					c8.68,9.42,19.97,14.12,33.86,14.12c14.02,0,25.38-4.71,34.06-14.12c8.68-9.42,13.02-21.34,13.02-35.76V39.53h10.02V118.87z"/>
				<path fill="white" d="M641.15,46.94c9.22,6.54,14.69,15.89,16.43,28.05h-10.02c-3.87-19.37-17.76-29.05-41.67-29.05
					c-11.35,0-20.4,2.5-27.15,7.51s-10.12,11.85-10.12,20.54c0,13.09,9.15,21.3,27.45,24.64l25.04,5.01
					c24.44,4.41,36.66,15.89,36.66,34.46c0,12.15-4.57,21.87-13.72,29.15s-21.2,10.92-36.16,10.92c-16.3,0-29.25-3.91-38.87-11.72
					c-9.62-7.81-15.36-19.07-17.23-33.76h10.22c3.74,24.31,19.17,36.46,46.28,36.46c11.89,0,21.4-2.71,28.55-8.11
					c7.15-5.41,10.72-12.72,10.72-21.94c0-6.54-2.37-12.05-7.11-16.53c-4.74-4.47-11.79-7.58-21.14-9.32l-27.05-5.21
					c-11.22-2.14-19.73-6.11-25.54-11.92s-8.71-13.12-8.71-21.94c0-11.22,4.34-20.2,13.02-26.95c8.68-6.75,20.1-10.12,34.26-10.12
					C619.98,37.12,631.94,40.4,641.15,46.94z"/>
				<path fill="white" d="M716.66,48.74v54.49h74.93v9.22h-74.93v53.89h82.94v9.42h-92.96V39.53h92.96v9.22H716.66z"/>
				<path fill="white" d="M965.27,39.53v136.24h-21.04L870.5,90.22v85.55h-27.25V39.53h20.24l74.53,87.95V39.53H965.27z"/>
				<path fill="white" d="M1035.32,39.53v136.24h-27.25V39.53H1035.32z"/>
				<path fill="white" d="M1200.13,39.53v136.24h-21.04l-73.73-85.55v85.55h-27.25V39.53h20.24l74.53,87.95V39.53H1200.13z"/>
				<path fill="white" d="M1336.29,124.48c0,17.23-4.77,30.49-14.32,39.77c-9.55,9.28-22.74,13.92-39.57,13.92
					c-14.69,0-26.78-4.17-36.26-12.52s-14.56-19.93-15.23-34.76h27.65c0.27,7.21,2.77,12.66,7.51,16.33
					c4.74,3.67,10.79,5.51,18.13,5.51c7.21,0,13.09-2.54,17.63-7.61c4.54-5.08,6.81-12.22,6.81-21.44V39.53h27.65V124.48z"/>
				<path fill="white" d="M1469.85,148.52h-62.71l-11.22,27.25h-29.25l59.1-136.24h25.44l58.9,136.24h-29.05L1469.85,148.52z
					 M1459.83,124.27l-21.44-52.09l-21.44,52.09H1459.83z"/>
			</g>
		</g>
	</g>
</g>
</svg>
