<svg xmlns="http://www.w3.org/2000/svg" viewBox="0 0 525.75 489.32"><defs><style>.cls-1{fill:#1a1a1a;}.cls-1,.cls-2{fill-rule:evenodd;}.cls-2{fill:#00c0bb;}</style></defs><g id="Layer_2" data-name="Layer 2"><g id="VERTICAL"><g id="Black_Vertical" data-name="Black Vertical"><g id="house_with_teal_check" data-name="house with teal check"><path class="cls-1" d="M361.71,53.71l-45,26L455.5,159.87c25.82,14.91,25.07,11.11,24.85,41.24V419.16h.52v12.58a12.73,12.73,0,0,1-12.69,12.69h-410a12.73,12.73,0,0,1-12.69-12.69v-8.57c0-3,0-6.33,0-10.16V236.6L.07,262.68v5.45a49.91,49.91,0,0,0,.52,6.67V449.05c-.41,22.2,39.95,40.27,39.95,40.27H485.36s40.26-18,40.39-40.09V161.36a22.73,22.73,0,0,0-11.31-19.5L361.71,53.71Z"/><path class="cls-2" d="M0,200.25V51.93a1.4,1.4,0,0,1,1.44-1.27H44a.86.86,0,0,1,.9,1.25v70.25L251.65,3a22.42,22.42,0,0,1,22.59.11L307.85,22.5Z"/></g></g></g></g></svg>