<svg xmlns="http://www.w3.org/2000/svg" viewBox="0 0 1301.32 795.78"><defs><style>.cls-1,.cls-2{fill:#1a1a1a;}.cls-2,.cls-3{fill-rule:evenodd;}.cls-3{fill:#00c0bb;}</style></defs><g id="Layer_2" data-name="Layer 2"><g id="VERTICAL"><g id="Black_Vertical" data-name="Black Vertical"><path class="cls-1" d="M96.6,672.67v121H87.71v-56H8.9v56H0v-121H8.9v56.75H87.71V672.67Z"/><path class="cls-1" d="M249,688.77q18.42,18.24,18.41,44.39T249,777.55q-18.42,18.23-44.56,18.23t-44.57-18.23q-18.4-18.24-18.41-44.39t18.41-44.39q18.42-18.22,44.57-18.23T249,688.77Zm-6.32,82.73q15.66-15.75,15.66-38.34t-15.66-38.43Q227,678.91,204.39,678.9t-38.25,15.83q-15.66,15.84-15.66,38.43t15.66,38.34q15.65,15.74,38.25,15.74T242.63,771.5Z"/><path class="cls-1" d="M410.91,743.12q0,23.31-14.06,38T360.2,795.78q-22.59,0-36.55-14.76t-14-37.9V672.67h8.9v70.45q0,19.21,11.56,31.76t30.06,12.54q18.69,0,30.25-12.54T402,743.12V672.67h8.9Z"/><path class="cls-1" d="M529.72,679.25Q542,688,544.31,704.16h-8.89q-5.16-25.8-37-25.79-15.12,0-24.1,6.67t-9,18.23q0,17.44,24.38,21.88l22.23,4.45q32.57,5.88,32.56,30.6,0,16.18-12.19,25.88t-32.11,9.7q-21.7,0-34.51-10.41t-15.3-30h9.07q5,32.37,41.1,32.38,15.82,0,25.35-7.21t9.52-19.48a19.41,19.41,0,0,0-6.32-14.68q-6.32-6-18.77-8.27l-24-4.62q-14.94-2.85-22.68-10.59t-7.74-19.48q0-14.94,11.57-23.93t30.42-9Q517.44,670.54,529.72,679.25Z"/><path class="cls-1" d="M596.77,680.86v48.39h66.54v8.18H596.77v47.85h73.65v8.37H587.88v-121h82.54v8.19Z"/><path class="cls-1" d="M817.52,672.67v121H798.84l-65.46-76v76h-24.2v-121h18l66.18,78.1v-78.1Z"/><path class="cls-1" d="M879.72,672.67v121H855.53v-121Z"/><path class="cls-1" d="M1026.07,672.67v121h-18.68l-65.47-76v76h-24.2v-121h18l66.18,78.1v-78.1Z"/><path class="cls-1" d="M1147,748.1q0,22.95-12.72,35.32t-35.13,12.36q-19.57,0-32.2-11.12T1053.4,753.8H1078q.35,9.6,6.67,14.5t16.1,4.89a20,20,0,0,0,15.65-6.76q6.06-6.76,6.05-19V672.67H1147Z"/><path class="cls-1" d="M1265.56,769.45h-55.68l-10,24.2h-26l52.48-121H1249l52.3,121h-25.79Zm-8.89-21.52-19-46.26-19,46.26Z"/><g id="house_with_teal_check" data-name="house with teal check"><path class="cls-2" d="M741.84,53.71l-45,26,138.82,80.16c25.83,14.91,25.08,11.11,24.86,41.24V419.16H861v12.58a12.73,12.73,0,0,1-12.69,12.69h-410a12.73,12.73,0,0,1-12.69-12.69v-8.57c0-3,0-6.33,0-10.16V236.6l-45.4,26.08v5.45a49.91,49.91,0,0,0,.52,6.67V449.05c-.42,22.2,39.95,40.27,39.95,40.27H865.49s40.27-18,40.4-40.09V161.36a22.72,22.72,0,0,0-11.32-19.5L741.84,53.71Z"/><path class="cls-3" d="M380.14,200.25V51.93a1.39,1.39,0,0,1,1.44-1.27h42.54a.86.86,0,0,1,.9,1.25v70.25L631.78,3a22.44,22.44,0,0,1,22.6.11L688,22.5Z"/></g></g></g></g></svg>