<?xml version="1.0" encoding="utf-8"?>
<!-- Generator: Adobe Illustrator 26.0.1, SVG Export Plug-In . SVG Version: 6.00 Build 0)  -->
<svg version="1.1" id="Layer_1" xmlns="http://www.w3.org/2000/svg" xmlns:xlink="http://www.w3.org/1999/xlink" x="0px" y="0px"
	 viewBox="0 0 90 90" style="enable-background:new 0 0 90 90;" xml:space="preserve">
<path d="M11.3,25h43.9c1.6,0,2.8-0.7,2.8-1.5c0-0.9-1.3-1.6-2.8-1.6H11.3c-1.6,0-2.8,0.7-2.8,1.6C8.4,24.3,9.7,25,11.3,25z"/>
<path d="M70.6,26.2c0.6,0.6,1.5,0.6,2.2,0l8.4-7.9c0.6-0.6,0.6-1.6,0.1-2.2c-0.6-0.6-1.6-0.6-2.2-0.1l-7.3,7l-3.5-3.5
	c-0.3-0.3-0.7-0.5-1.1-0.5c-0.4,0-0.8,0.2-1.1,0.5c-0.6,0.6-0.6,1.6,0,2.2L70.6,26.2z"/>
<path d="M11.3,48.1h43.9c1.6,0,2.8-0.7,2.8-1.6c0-0.9-1.3-1.5-2.8-1.5H11.3c-1.6,0-2.8,0.7-2.8,1.6C8.4,47.4,9.7,48.1,11.3,48.1z"/>
<path d="M70.6,50.1c0.3,0.3,0.7,0.5,1.1,0.5c0.4,0,0.8-0.2,1.1-0.4l8.4-7.9c0.3-0.3,0.5-0.7,0.5-1.1c0-0.4-0.1-0.8-0.4-1.1
	c-0.6-0.6-1.6-0.7-2.2-0.1c0,0,0,0,0,0l-7.3,6.9l-3.5-3.5c-0.3-0.3-0.7-0.5-1.1-0.5c-0.9,0-1.6,0.7-1.5,1.6c0,0.4,0.2,0.8,0.4,1.1
	L70.6,50.1z"/>
<path d="M11.3,71.3h43.9c1.6,0,2.8-0.7,2.8-1.6c0-0.9-1.3-1.5-2.8-1.5H11.3c-1.6,0-2.8,0.7-2.8,1.6C8.4,70.6,9.7,71.3,11.3,71.3z"/>
<path d="M70.6,73.9c0.6,0.6,1.5,0.6,2.2,0l8.4-7.9c0.3-0.3,0.5-0.7,0.5-1.1c0-0.9-0.7-1.6-1.5-1.6c0,0,0,0,0,0
	c-0.4,0-0.8,0.1-1.1,0.4l-7.3,6.9l-3.5-3.5c-0.6-0.6-1.6-0.6-2.2,0c-0.3,0.3-0.5,0.7-0.5,1.1c0,0.4,0.2,0.8,0.5,1.1L70.6,73.9z"/>
</svg>
