<svg width="26" height="26" viewBox="0 0 26 26" fill="none" xmlns="http://www.w3.org/2000/svg">
<path fill-rule="evenodd" clip-rule="evenodd" d="M8.12499 19.6875C8.12499 19.472 8.21059 19.2653 8.36297 19.113C8.51534 18.9606 8.722 18.875 8.93749 18.875H23.5625C23.778 18.875 23.9846 18.9606 24.137 19.113C24.2894 19.2653 24.375 19.472 24.375 19.6875C24.375 19.903 24.2894 20.1096 24.137 20.262C23.9846 20.4144 23.778 20.5 23.5625 20.5H8.93749C8.722 20.5 8.51534 20.4144 8.36297 20.262C8.21059 20.1096 8.12499 19.903 8.12499 19.6875ZM8.12499 13.1875C8.12499 12.972 8.21059 12.7653 8.36297 12.613C8.51534 12.4606 8.722 12.375 8.93749 12.375H23.5625C23.778 12.375 23.9846 12.4606 24.137 12.613C24.2894 12.7653 24.375 12.972 24.375 13.1875C24.375 13.403 24.2894 13.6096 24.137 13.762C23.9846 13.9144 23.778 14 23.5625 14H8.93749C8.722 14 8.51534 13.9144 8.36297 13.762C8.21059 13.6096 8.12499 13.403 8.12499 13.1875ZM8.12499 6.68749C8.12499 6.472 8.21059 6.26534 8.36297 6.11296C8.51534 5.96059 8.722 5.87499 8.93749 5.87499H23.5625C23.778 5.87499 23.9846 5.96059 24.137 6.11296C24.2894 6.26534 24.375 6.472 24.375 6.68749C24.375 6.90298 24.2894 7.10964 24.137 7.26201C23.9846 7.41439 23.778 7.49999 23.5625 7.49999H8.93749C8.722 7.49999 8.51534 7.41439 8.36297 7.26201C8.21059 7.10964 8.12499 6.90298 8.12499 6.68749ZM6.26274 4.48724C6.3384 4.56271 6.39844 4.65237 6.4394 4.75108C6.48036 4.84979 6.50144 4.95562 6.50144 5.06249C6.50144 5.16936 6.48036 5.27518 6.4394 5.37389C6.39844 5.4726 6.3384 5.56226 6.26274 5.63774L3.82524 8.07524C3.74976 8.1509 3.6601 8.21094 3.56139 8.2519C3.46268 8.29286 3.35686 8.31394 3.24999 8.31394C3.14312 8.31394 3.0373 8.29286 2.93858 8.2519C2.83987 8.21094 2.75021 8.1509 2.67474 8.07524L1.86224 7.26274C1.7867 7.1872 1.72677 7.09751 1.68589 6.99881C1.645 6.90011 1.62396 6.79432 1.62396 6.68749C1.62396 6.58065 1.645 6.47487 1.68589 6.37616C1.72677 6.27746 1.7867 6.18778 1.86224 6.11224C1.93778 6.03669 2.02746 5.97677 2.12617 5.93589C2.22487 5.895 2.33065 5.87396 2.43749 5.87396C2.54432 5.87396 2.65011 5.895 2.74881 5.93589C2.84751 5.97677 2.9372 6.03669 3.01274 6.11224L3.24999 6.35111L5.11224 4.48724C5.18771 4.41157 5.27737 4.35154 5.37608 4.31058C5.47479 4.26962 5.58062 4.24854 5.68749 4.24854C5.79436 4.24854 5.90018 4.26962 5.99889 4.31058C6.0976 4.35154 6.18726 4.41157 6.26274 4.48724ZM6.26274 10.9872C6.3384 11.0627 6.39844 11.1524 6.4394 11.2511C6.48036 11.3498 6.50144 11.4556 6.50144 11.5625C6.50144 11.6694 6.48036 11.7752 6.4394 11.8739C6.39844 11.9726 6.3384 12.0623 6.26274 12.1377L3.82524 14.5752C3.74976 14.6509 3.6601 14.7109 3.56139 14.7519C3.46268 14.7929 3.35686 14.8139 3.24999 14.8139C3.14312 14.8139 3.0373 14.7929 2.93858 14.7519C2.83987 14.7109 2.75021 14.6509 2.67474 14.5752L1.86224 13.7627C1.70967 13.6102 1.62396 13.4032 1.62396 13.1875C1.62396 12.9717 1.70967 12.7648 1.86224 12.6122C2.0148 12.4597 2.22173 12.374 2.43749 12.374C2.65325 12.374 2.86017 12.4597 3.01274 12.6122L3.24999 12.8511L5.11224 10.9872C5.18771 10.9116 5.27737 10.8515 5.37608 10.8106C5.47479 10.7696 5.58062 10.7485 5.68749 10.7485C5.79436 10.7485 5.90018 10.7696 5.99889 10.8106C6.0976 10.8515 6.18726 10.9116 6.26274 10.9872ZM6.26274 17.4872C6.3384 17.5627 6.39844 17.6524 6.4394 17.7511C6.48036 17.8498 6.50144 17.9556 6.50144 18.0625C6.50144 18.1694 6.48036 18.2752 6.4394 18.3739C6.39844 18.4726 6.3384 18.5623 6.26274 18.6377L3.82524 21.0752C3.74976 21.1509 3.6601 21.2109 3.56139 21.2519C3.46268 21.2929 3.35686 21.3139 3.24999 21.3139C3.14312 21.3139 3.0373 21.2929 2.93858 21.2519C2.83987 21.2109 2.75021 21.1509 2.67474 21.0752L1.86224 20.2627C1.70967 20.1102 1.62396 19.9032 1.62396 19.6875C1.62396 19.4717 1.70967 19.2648 1.86224 19.1122C2.0148 18.9597 2.22173 18.874 2.43749 18.874C2.65325 18.874 2.86017 18.9597 3.01274 19.1122L3.24999 19.3511L5.11224 17.4872C5.18771 17.4116 5.27737 17.3515 5.37608 17.3106C5.47479 17.2696 5.58062 17.2485 5.68749 17.2485C5.79436 17.2485 5.90018 17.2696 5.99889 17.3106C6.0976 17.3515 6.18726 17.4116 6.26274 17.4872Z" fill="#666666"/>
</svg>
