<svg id="Layer_1" data-name="Layer 1" xmlns="http://www.w3.org/2000/svg" viewBox="0 0 90 90"><path d="M70.31,12H19.69a5.25,5.25,0,0,0-5.24,5.24V72.81a5.25,5.25,0,0,0,5.24,5.24H70.31a5.25,5.25,0,0,0,5.24-5.24V17.19A5.25,5.25,0,0,0,70.31,12ZM17.55,17.19a2.14,2.14,0,0,1,2.14-2.14H70.31a2.14,2.14,0,0,1,2.14,2.14V72.81A2.14,2.14,0,0,1,70.31,75H19.69a2.14,2.14,0,0,1-2.14-2.14Z"/><path d="M23.61,30h24a1.55,1.55,0,0,0,0-3.1h-24a1.55,1.55,0,0,0,0,3.1Z"/><path d="M56.93,31.22a1.55,1.55,0,0,0,2.15,0l8.37-7.92a1.55,1.55,0,0,0,.06-2.19,1.56,1.56,0,0,0-2.19-.06L58.05,28l-3.49-3.47A1.54,1.54,0,0,0,53.47,24a1.51,1.51,0,0,0-1.1.46,1.55,1.55,0,0,0,0,2.19Z"/><path d="M23.61,48.14h24a1.55,1.55,0,0,0,0-3.1h-24a1.55,1.55,0,0,0,0,3.1Z"/><path d="M56.93,50.06a1.54,1.54,0,0,0,1.09.45,1.49,1.49,0,0,0,1.06-.43l8.37-7.91a1.6,1.6,0,0,0,.49-1.08A1.52,1.52,0,0,0,67.51,40a1.54,1.54,0,0,0-2.19-.06L58.05,46.8l-3.49-3.47a1.5,1.5,0,0,0-1.09-.46,1.56,1.56,0,0,0-1.1,2.65Z"/><path d="M23.61,66.31h24a1.55,1.55,0,0,0,0-3.1h-24a1.55,1.55,0,0,0,0,3.1Z"/><path d="M56.93,68.89a1.55,1.55,0,0,0,2.15,0L67.45,61a1.58,1.58,0,0,0,.49-1.08,1.55,1.55,0,0,0-1.55-1.59,1.57,1.57,0,0,0-1.07.42l-7.27,6.88-3.49-3.47a1.56,1.56,0,0,0-2.19,0,1.49,1.49,0,0,0-.45,1.1,1.52,1.52,0,0,0,.45,1.09Z"/></svg>