<svg width="26" height="26" viewBox="0 0 26 26" fill="none" xmlns="http://www.w3.org/2000/svg">
<path d="M19.954 8.51205L15.6308 4.18884C15.5103 4.0683 15.3475 4 15.1768 4H6.64286C6.28728 4 6 4.28728 6 4.64286V21.3571C6 21.7127 6.28728 22 6.64286 22H19.5C19.8556 22 20.1429 21.7127 20.1429 21.3571V8.96808C20.1429 8.79732 20.0746 8.63259 19.954 8.51205ZM18.6603 9.26339H14.8795V5.48259L18.6603 9.26339ZM18.6964 20.5536H7.44643V5.44643H13.5134V9.78571C13.5134 10.0095 13.6023 10.2241 13.7605 10.3823C13.9188 10.5406 14.1334 10.6295 14.3571 10.6295H18.6964V20.5536Z" fill="#666666"/>
</svg>
