<svg width="26" height="26" viewBox="0 0 26 26" fill="none" xmlns="http://www.w3.org/2000/svg">
<path d="M9.895 6.28571L12.0936 8.47786L12.4664 8.85714H20.7143V19.1429H5.28571V6.28571H9.895ZM9.895 5H5.28571C4.94472 5 4.6177 5.13546 4.37658 5.37658C4.13546 5.6177 4 5.94472 4 6.28571V19.1429C4 19.4838 4.13546 19.8109 4.37658 20.052C4.6177 20.2931 4.94472 20.4286 5.28571 20.4286H20.7143C21.0553 20.4286 21.3823 20.2931 21.6234 20.052C21.8645 19.8109 22 19.4838 22 19.1429V8.85714C22 8.51615 21.8645 8.18912 21.6234 7.94801C21.3823 7.70689 21.0553 7.57143 20.7143 7.57143H13L10.8079 5.37929C10.6882 5.25896 10.546 5.1635 10.3893 5.09841C10.2327 5.03331 10.0647 4.99987 9.895 5V5Z" fill="#666666"/>
</svg>
