<svg width="26" height="26" viewBox="0 0 26 26" fill="none" xmlns="http://www.w3.org/2000/svg">
<path d="M13.8257 12.9417L12.2627 14.9346L11.4371 13.8819C11.422 13.8627 11.4028 13.8472 11.3809 13.8365C11.359 13.8258 11.3349 13.8203 11.3105 13.8203C11.2861 13.8203 11.262 13.8258 11.2401 13.8365C11.2182 13.8472 11.199 13.8627 11.1839 13.8819L9.17902 16.4373C9.16047 16.461 9.14896 16.4894 9.14581 16.5193C9.14265 16.5492 9.14798 16.5794 9.16119 16.6065C9.17439 16.6335 9.19493 16.6563 9.22047 16.6722C9.246 16.6881 9.2755 16.6965 9.30558 16.6964H16.6964C16.831 16.6964 16.9054 16.5417 16.823 16.4373L14.0808 12.9417C14.0656 12.9225 14.0462 12.907 14.0241 12.8963C14.002 12.8856 13.9778 12.88 13.9532 12.88C13.9287 12.88 13.9045 12.8856 13.8824 12.8963C13.8603 12.907 13.8409 12.9225 13.8257 12.9417V12.9417ZM9.94643 11.5937C9.94643 11.8069 10.0311 12.0113 10.1818 12.162C10.3325 12.3127 10.5369 12.3973 10.75 12.3973C10.9631 12.3973 11.1675 12.3127 11.3182 12.162C11.4689 12.0113 11.5536 11.8069 11.5536 11.5937C11.5536 11.3806 11.4689 11.1762 11.3182 11.0255C11.1675 10.8748 10.9631 10.7902 10.75 10.7902C10.5369 10.7902 10.3325 10.8748 10.1818 11.0255C10.0311 11.1762 9.94643 11.3806 9.94643 11.5937ZM19.8826 8.51205L15.5594 4.18884C15.4388 4.0683 15.2761 4 15.1054 4H6.57143C6.21585 4 5.92857 4.28728 5.92857 4.64286V21.3571C5.92857 21.7127 6.21585 22 6.57143 22H19.4286C19.7842 22 20.0714 21.7127 20.0714 21.3571V8.96808C20.0714 8.79732 20.0031 8.63259 19.8826 8.51205ZM18.5888 9.26339H14.808V5.48259L18.5888 9.26339ZM18.625 20.5536H7.375V5.44643H13.442V9.78571C13.442 10.0095 13.5309 10.2241 13.6891 10.3823C13.8473 10.5406 14.0619 10.6295 14.2857 10.6295H18.625V20.5536Z" fill="#666666"/>
</svg>
