<svg width="26" height="26" viewBox="0 0 26 26" fill="none" xmlns="http://www.w3.org/2000/svg">
<path d="M19.9779 5.24703C20.2863 5.24703 20.5821 5.36956 20.8002 5.58766C21.0183 5.80576 21.1408 6.10157 21.1408 6.41001V15.7138C21.1408 16.0222 21.0183 16.318 20.8002 16.5361C20.5821 16.7542 20.2863 16.8768 19.9779 16.8768H17.0704C16.7093 16.8768 16.3532 16.9608 16.0302 17.1223C15.7073 17.2838 15.4263 17.5183 15.2097 17.8071L13 20.753L10.7904 17.8071C10.5737 17.5183 10.2928 17.2838 9.9698 17.1223C9.64683 16.9608 9.2907 16.8768 8.92961 16.8768H6.02217C5.71374 16.8768 5.41793 16.7542 5.19983 16.5361C4.98173 16.318 4.8592 16.0222 4.8592 15.7138V6.41001C4.8592 6.10157 4.98173 5.80576 5.19983 5.58766C5.41793 5.36956 5.71374 5.24703 6.02217 5.24703H19.9779ZM6.02217 4.08406C5.4053 4.08406 4.81368 4.32912 4.37748 4.76531C3.94128 5.20151 3.69623 5.79313 3.69623 6.41001L3.69623 15.7138C3.69623 16.3307 3.94128 16.9223 4.37748 17.3585C4.81368 17.7947 5.4053 18.0397 6.02217 18.0397H8.92961C9.11015 18.0397 9.28822 18.0818 9.44971 18.1625C9.61119 18.2433 9.75166 18.3605 9.85999 18.5049L12.0696 21.4507C12.178 21.5952 12.3184 21.7124 12.4799 21.7932C12.6414 21.8739 12.8195 21.9159 13 21.9159C13.1806 21.9159 13.3586 21.8739 13.5201 21.7932C13.6816 21.7124 13.8221 21.5952 13.9304 21.4507L16.14 18.5049C16.2484 18.3605 16.3888 18.2433 16.5503 18.1625C16.7118 18.0818 16.8899 18.0397 17.0704 18.0397H19.9779C20.5947 18.0397 21.1863 17.7947 21.6225 17.3585C22.0587 16.9223 22.3038 16.3307 22.3038 15.7138V6.41001C22.3038 5.79313 22.0587 5.20151 21.6225 4.76531C21.1863 4.32912 20.5947 4.08406 19.9779 4.08406H6.02217Z" fill="#CCCCCC"/>
<path d="M9.51107 11.0619C9.51107 11.3703 9.38854 11.6661 9.17044 11.8842C8.95234 12.1023 8.65653 12.2249 8.34809 12.2249C8.03965 12.2249 7.74385 12.1023 7.52575 11.8842C7.30765 11.6661 7.18512 11.3703 7.18512 11.0619C7.18512 10.7534 7.30765 10.4576 7.52575 10.2395C7.74385 10.0214 8.03965 9.89891 8.34809 9.89891C8.65653 9.89891 8.95234 10.0214 9.17044 10.2395C9.38854 10.4576 9.51107 10.7534 9.51107 11.0619V11.0619ZM14.163 11.0619C14.163 11.3703 14.0404 11.6661 13.8223 11.8842C13.6042 12.1023 13.3084 12.2249 13 12.2249C12.6915 12.2249 12.3957 12.1023 12.1776 11.8842C11.9595 11.6661 11.837 11.3703 11.837 11.0619C11.837 10.7534 11.9595 10.4576 12.1776 10.2395C12.3957 10.0214 12.6915 9.89891 13 9.89891C13.3084 9.89891 13.6042 10.0214 13.8223 10.2395C14.0404 10.4576 14.163 10.7534 14.163 11.0619ZM18.8149 11.0619C18.8149 11.3703 18.6923 11.6661 18.4742 11.8842C18.2561 12.1023 17.9603 12.2249 17.6519 12.2249C17.3434 12.2249 17.0476 12.1023 16.8295 11.8842C16.6114 11.6661 16.4889 11.3703 16.4889 11.0619C16.4889 10.7534 16.6114 10.4576 16.8295 10.2395C17.0476 10.0214 17.3434 9.89891 17.6519 9.89891C17.9603 9.89891 18.2561 10.0214 18.4742 10.2395C18.6923 10.4576 18.8149 10.7534 18.8149 11.0619Z" fill="#CCCCCC"/>
</svg>
