<svg width="26" height="26" viewBox="0 0 26 26" fill="none" xmlns="http://www.w3.org/2000/svg">
<path d="M19.9771 5.24786C20.2855 5.24786 20.5813 5.37037 20.7994 5.58845C21.0175 5.80653 21.14 6.1023 21.14 6.41071V15.7135C21.14 16.0219 21.0175 16.3177 20.7994 16.5358C20.5813 16.7539 20.2855 16.8764 19.9771 16.8764H17.07C16.7089 16.8764 16.3528 16.9604 16.0299 17.1219C15.707 17.2834 15.4261 17.5178 15.2094 17.8067L13 20.7522L10.7906 17.8067C10.574 17.5178 10.2931 17.2834 9.97012 17.1219C9.64719 16.9604 9.29109 16.8764 8.93004 16.8764H6.02291C5.7145 16.8764 5.41872 16.7539 5.20065 16.5358C4.98257 16.3177 4.86006 16.0219 4.86006 15.7135V6.41071C4.86006 6.1023 4.98257 5.80653 5.20065 5.58845C5.41872 5.37037 5.7145 5.24786 6.02291 5.24786H19.9771ZM6.02291 4.08501C5.40609 4.08501 4.81454 4.33004 4.37839 4.76619C3.94223 5.20234 3.6972 5.79389 3.6972 6.41071L3.6972 15.7135C3.6972 16.3303 3.94223 16.9219 4.37839 17.358C4.81454 17.7942 5.40609 18.0392 6.02291 18.0392H8.93004C9.11056 18.0392 9.28861 18.0813 9.45008 18.162C9.61155 18.2427 9.752 18.3599 9.86032 18.5044L12.0697 21.4499C12.1781 21.5943 12.3185 21.7115 12.48 21.7922C12.6414 21.873 12.8195 21.915 13 21.915C13.1805 21.915 13.3586 21.873 13.5201 21.7922C13.6815 21.7115 13.822 21.5943 13.9303 21.4499L16.1397 18.5044C16.248 18.3599 16.3885 18.2427 16.55 18.162C16.7114 18.0813 16.8895 18.0392 17.07 18.0392H19.9771C20.5939 18.0392 21.1855 17.7942 21.6216 17.358C22.0578 16.9219 22.3028 16.3303 22.3028 15.7135V6.41071C22.3028 5.79389 22.0578 5.20234 21.6216 4.76619C21.1855 4.33004 20.5939 4.08501 19.9771 4.08501H6.02291Z" fill="#CCCCCC"/>
<path d="M7.18576 8.15499C7.18576 8.00078 7.24702 7.8529 7.35606 7.74386C7.46509 7.63482 7.61298 7.57356 7.76719 7.57356H18.2328C18.3871 7.57356 18.5349 7.63482 18.644 7.74386C18.753 7.8529 18.8143 8.00078 18.8143 8.15499C18.8143 8.30919 18.753 8.45708 18.644 8.56612C18.5349 8.67516 18.3871 8.73641 18.2328 8.73641H7.76719C7.61298 8.73641 7.46509 8.67516 7.35606 8.56612C7.24702 8.45708 7.18576 8.30919 7.18576 8.15499ZM7.18576 11.0621C7.18576 10.9079 7.24702 10.76 7.35606 10.651C7.46509 10.5419 7.61298 10.4807 7.76719 10.4807H18.2328C18.3871 10.4807 18.5349 10.5419 18.644 10.651C18.753 10.76 18.8143 10.9079 18.8143 11.0621C18.8143 11.2163 18.753 11.3642 18.644 11.4732C18.5349 11.5823 18.3871 11.6435 18.2328 11.6435H7.76719C7.61298 11.6435 7.46509 11.5823 7.35606 11.4732C7.24702 11.3642 7.18576 11.2163 7.18576 11.0621ZM7.18576 13.9692C7.18576 13.815 7.24702 13.6672 7.35606 13.5581C7.46509 13.4491 7.61298 13.3878 7.76719 13.3878H13.5814C13.7356 13.3878 13.8835 13.4491 13.9926 13.5581C14.1016 13.6672 14.1629 13.815 14.1629 13.9692C14.1629 14.1234 14.1016 14.2713 13.9926 14.3804C13.8835 14.4894 13.7356 14.5507 13.5814 14.5507H7.76719C7.61298 14.5507 7.46509 14.4894 7.35606 14.3804C7.24702 14.2713 7.18576 14.1234 7.18576 13.9692Z" fill="#CCCCCC"/>
</svg>
