<svg width="26" height="26" viewBox="0 0 26 26" fill="none" xmlns="http://www.w3.org/2000/svg">
<path d="M5.28574 13.9184C5.43188 13.9184 5.57203 13.8603 5.67537 13.757C5.77871 13.6537 5.83676 13.5135 5.83676 13.3674V5.28577C5.83676 5.23706 5.85611 5.19034 5.89056 5.15589C5.925 5.12145 5.97172 5.1021 6.02043 5.1021H14.2857V9.69392C14.2857 9.84006 14.3438 9.98021 14.4471 10.0835C14.5504 10.1869 14.6906 10.2449 14.8367 10.2449H19.4286V13.3674C19.4286 13.5135 19.4866 13.6537 19.5899 13.757C19.6933 13.8603 19.8334 13.9184 19.9796 13.9184C20.1257 13.9184 20.2659 13.8603 20.3692 13.757C20.4725 13.6537 20.5306 13.5135 20.5306 13.3674V9.69392C20.5308 9.6204 20.5162 9.54758 20.4879 9.47976C20.4595 9.41194 20.4178 9.35049 20.3653 9.29902L15.2224 4.16537C15.1734 4.11225 15.1137 4.07007 15.0472 4.04158C14.9808 4.0131 14.909 3.99895 14.8367 4.00006H6.02043C5.67944 4.00006 5.35242 4.13552 5.1113 4.37664C4.87018 4.61775 4.73472 4.94478 4.73472 5.28577V13.3674C4.73472 13.5135 4.79278 13.6537 4.89611 13.757C4.99945 13.8603 5.1396 13.9184 5.28574 13.9184ZM15.3877 5.88271L18.6479 9.1429H15.3877V5.88271ZM6.75512 16.4898H5.28574C5.1396 16.4898 4.99945 16.5479 4.89611 16.6512C4.79278 16.7545 4.73472 16.8947 4.73472 17.0408V21.449C4.73472 21.5951 4.79278 21.7353 4.89611 21.8386C4.99945 21.9419 5.1396 22 5.28574 22C5.43188 22 5.57203 21.9419 5.67537 21.8386C5.77871 21.7353 5.83676 21.5951 5.83676 21.449V20.5306H6.75512C7.29097 20.5306 7.80486 20.3178 8.18376 19.9389C8.56266 19.56 8.77553 19.0461 8.77553 18.5102C8.77553 17.9744 8.56266 17.4605 8.18376 17.0816C7.80486 16.7027 7.29097 16.4898 6.75512 16.4898ZM6.75512 19.4286H5.83676V17.5919H6.75512C6.99869 17.5919 7.23228 17.6886 7.40451 17.8608C7.57673 18.0331 7.67349 18.2667 7.67349 18.5102C7.67349 18.7538 7.57673 18.9874 7.40451 19.1596C7.23228 19.3318 6.99869 19.4286 6.75512 19.4286V19.4286ZM18.6939 17.5919V19.0612H20.3469C20.4931 19.0612 20.6332 19.1193 20.7365 19.2226C20.8399 19.326 20.8979 19.4661 20.8979 19.6123C20.8979 19.7584 20.8399 19.8985 20.7365 20.0019C20.6332 20.1052 20.4931 20.1633 20.3469 20.1633H18.6939V21.449C18.6939 21.5951 18.6358 21.7353 18.5325 21.8386C18.4291 21.9419 18.289 22 18.1428 22C17.9967 22 17.8565 21.9419 17.7532 21.8386C17.6499 21.7353 17.5918 21.5951 17.5918 21.449V17.0408C17.5918 16.8947 17.6499 16.7545 17.7532 16.6512C17.8565 16.5479 17.9967 16.4898 18.1428 16.4898H20.7143C20.8604 16.4898 21.0006 16.5479 21.1039 16.6512C21.2072 16.7545 21.2653 16.8947 21.2653 17.0408C21.2653 17.187 21.2072 17.3271 21.1039 17.4305C21.0006 17.5338 20.8604 17.5919 20.7143 17.5919H18.6939ZM12.6327 16.4898H11.3469C11.2008 16.4898 11.0607 16.5479 10.9573 16.6512C10.854 16.7545 10.7959 16.8947 10.7959 17.0408V21.449C10.7959 21.5951 10.854 21.7353 10.9573 21.8386C11.0607 21.9419 11.2008 22 11.3469 22H12.6327C13.3634 22 14.0641 21.7097 14.5808 21.1931C15.0975 20.6764 15.3877 19.9756 15.3877 19.2449C15.3877 18.5142 15.0975 17.8134 14.5808 17.2968C14.0641 16.7801 13.3634 16.4898 12.6327 16.4898ZM12.6327 20.898H11.898V17.5919H12.6327C13.0711 17.5919 13.4915 17.766 13.8015 18.076C14.1115 18.386 14.2857 18.8065 14.2857 19.2449C14.2857 19.6833 14.1115 20.1038 13.8015 20.4138C13.4915 20.7238 13.0711 20.898 12.6327 20.898Z" fill="#666666"/>
</svg>
