<svg width="26" height="26" viewBox="0 0 26 26" fill="none" xmlns="http://www.w3.org/2000/svg">
<path fill-rule="evenodd" clip-rule="evenodd" d="M14 4.51472C14 3.96243 13.5523 3.51472 13 3.51472C12.4477 3.51472 12 3.96243 12 4.51472L12 12L4.51472 12C3.96243 12 3.51472 12.4477 3.51472 13C3.51472 13.5523 3.96243 14 4.51472 14L12 14L12 21.4853C12 22.0376 12.4477 22.4853 13 22.4853C13.5523 22.4853 14 22.0376 14 21.4853L14 14H21.4853C22.0376 14 22.4853 13.5523 22.4853 13C22.4853 12.4477 22.0376 12 21.4853 12H14L14 4.51472Z" fill="#666666"/>
</svg>
