<svg id="Layer_1" data-name="Layer 1" xmlns="http://www.w3.org/2000/svg" viewBox="0 0 90 90"><path d="M76.8,23.11H65.39a7.19,7.19,0,0,0,1.5-4.38,6.8,6.8,0,0,0-6.8-6.79,13,13,0,0,0-9.3,4.11c-.84.81-1.64,1.67-2.41,2.49A35.66,35.66,0,0,1,45,21.9a35.66,35.66,0,0,1-3.38-3.36c-.77-.82-1.57-1.68-2.41-2.49a13,13,0,0,0-9.31-4.11,6.8,6.8,0,0,0-6.79,6.79,7.19,7.19,0,0,0,1.5,4.38H13.08a1.27,1.27,0,0,0-1.14,1.26V39.84A1.25,1.25,0,0,0,13.2,41.1h3.9V76.8a1.25,1.25,0,0,0,1.26,1.26H71.64A1.25,1.25,0,0,0,72.9,76.8V41.1h3.9a1.25,1.25,0,0,0,1.26-1.26V24.37A1.26,1.26,0,0,0,76.8,23.11ZM29.91,14.46c3.29,0,5.39,1.36,7.53,3.41.74.7,1.45,1.47,2.2,2.28.91,1,1.86,2,2.9,3H28.86a4.69,4.69,0,0,1-3.23-4.37A4.18,4.18,0,0,1,29.91,14.46ZM43.74,25.63v13H14.46V25.63Zm0,15.47V75.54H19.62V41.1ZM60.09,14.46a4.18,4.18,0,0,1,4.28,4.27,4.69,4.69,0,0,1-3.23,4.37H47.46c1-.95,2-2,2.9-3,.75-.81,1.46-1.58,2.19-2.28C54.69,15.82,56.79,14.46,60.09,14.46ZM75.54,25.63v13H46.26V25.63ZM46.26,75.54V41.1H70.38V75.54Z"/></svg>