<svg width="53" height="52" viewBox="0 0 53 52" fill="none" xmlns="http://www.w3.org/2000/svg">
<g clip-path="url(#clip0_616_94)">
<path d="M48.4707 13.4913H39.3306C40.1728 12.1661 40.6682 10.5932 40.6682 8.90888C40.6682 4.19644 36.8351 0.363327 32.1226 0.363327C29.559 0.363327 27.2492 1.50273 25.6825 3.29854C24.1158 1.50273 21.806 0.363327 19.2424 0.363327C14.5299 0.363327 10.6968 4.19644 10.6968 8.90888C10.6968 10.5932 11.186 12.1661 12.0344 13.4913H2.89436C1.7983 13.4913 0.912781 14.3768 0.912781 15.4729V27.8577C0.912781 28.1302 1.13571 28.3531 1.40818 28.3531H3.88515V49.6551C3.88515 50.7512 4.77067 51.6367 5.86673 51.6367H45.4983C46.5944 51.6367 47.4799 50.7512 47.4799 49.6551V28.3531H49.9568C50.2293 28.3531 50.4522 28.1302 50.4522 27.8577V15.4729C50.4522 14.3768 49.5667 13.4913 48.4707 13.4913ZM27.7879 8.90888C27.7879 6.51861 29.7324 4.57418 32.1226 4.57418C34.5129 4.57418 36.4573 6.51861 36.4573 8.90888C36.4573 11.2992 34.5129 13.2436 32.1226 13.2436H27.7879V8.90888ZM19.2424 4.57418C21.6327 4.57418 23.5771 6.51861 23.5771 8.90888V13.2436H19.2424C16.8521 13.2436 14.9077 11.2992 14.9077 8.90888C14.9077 6.51861 16.8521 4.57418 19.2424 4.57418ZM5.12364 24.1423V17.7021H23.5771V24.1423H5.12364ZM8.096 28.3531H23.5771V47.4258H8.096V28.3531ZM43.269 47.4258H27.7879V28.3531H43.269V47.4258ZM46.2414 24.1423H27.7879V17.7021H46.2414V24.1423Z" fill="#666666"/>
</g>
<defs>
<clipPath id="clip0_616_94">
<rect width="51.2733" height="51.2733" fill="white" transform="translate(0.912781 0.363327)"/>
</clipPath>
</defs>
</svg>
