<svg id="Layer_1" data-name="Layer 1" xmlns="http://www.w3.org/2000/svg" viewBox="0 0 90 90"><path d="M85.41,43.38,45.67,13.23a1.08,1.08,0,0,0-1-.17l-.08,0a1.12,1.12,0,0,0-.24.13L4.59,43.38a1.23,1.23,0,0,0-.25,1.67,1.1,1.1,0,0,0,1.59.26l10.53-8V75.81A1.16,1.16,0,0,0,17.6,77H35.54a1.16,1.16,0,0,0,1.14-1.19V51.07H52.79V75.81A1.16,1.16,0,0,0,53.93,77H72.74a1.16,1.16,0,0,0,1.14-1.19V37.58l10.19,7.73a1,1,0,0,0,.67.23,1.12,1.12,0,0,0,.92-.49A1.23,1.23,0,0,0,85.41,43.38ZM71.6,74.61H55.07V49.88a1.17,1.17,0,0,0-1.14-1.2H35.54a1.18,1.18,0,0,0-1.15,1.2V74.61H18.74V36.14L45,15.68,71.6,36.14Z"/></svg>