<svg width="26" height="26" viewBox="0 0 26 26" fill="none" xmlns="http://www.w3.org/2000/svg">
<path d="M13 6.0235L5.41667 12.0902V20.5824H10.8333V16.2491H15.1667V20.5824H20.5833V12.6113C20.5834 12.4488 20.5469 12.2884 20.4766 12.1419C20.4063 11.9955 20.3039 11.8667 20.1771 11.7652L13 6.0235ZM13 3.24908L21.5302 10.0741C21.9106 10.3784 22.2177 10.7643 22.4288 11.2032C22.64 11.6422 22.7497 12.1231 22.75 12.6102V20.5824C22.75 21.1571 22.5217 21.7082 22.1154 22.1145C21.7091 22.5208 21.158 22.7491 20.5833 22.7491H5.41667C4.84203 22.7491 4.29093 22.5208 3.8846 22.1145C3.47827 21.7082 3.25 21.1571 3.25 20.5824V12.0902C3.25004 11.7654 3.32308 11.4448 3.46372 11.1521C3.60436 10.8594 3.80899 10.6021 4.0625 10.3991L13 3.24908Z" fill="#666666"/>
</svg>
