<svg width="26" height="26" viewBox="0 0 26 26" fill="none" xmlns="http://www.w3.org/2000/svg">
<path d="M13.2645 3.67244L24.8157 12.4361C24.9114 12.51 24.9753 12.6177 24.9942 12.7371C25.0131 12.8565 24.9857 12.9786 24.9174 13.0785C24.8997 13.1045 24.8794 13.1285 24.8569 13.15C24.8276 13.178 24.7945 13.202 24.7584 13.2212C24.7309 13.2358 24.702 13.2474 24.6723 13.256C24.6514 13.262 24.6301 13.2664 24.6086 13.2693V13.2729H24.5668L24.5512 13.2732L24.5342 13.2729L21.5108 13.2729V21.9526C21.512 22.0125 21.5013 22.0721 21.4794 22.1279C21.4576 22.1837 21.4249 22.2347 21.3833 22.2779C21.3417 22.3211 21.2921 22.3556 21.2372 22.3796C21.1822 22.4036 21.1231 22.4165 21.0632 22.4177H15.5957L15.5849 22.4173C15.5738 22.4169 15.5627 22.416 15.5518 22.4147C15.5376 22.4131 15.5235 22.4108 15.5096 22.4078C15.4911 22.4039 15.473 22.3988 15.4551 22.3927L15.4422 22.388C15.4352 22.3854 15.4284 22.3826 15.4217 22.3796C15.3667 22.3556 15.3171 22.3211 15.2755 22.2779C15.2339 22.2347 15.2013 22.1837 15.1794 22.1279C15.176 22.1193 15.1729 22.1105 15.1701 22.1017L15.1668 22.091L15.1647 22.084C15.1626 22.0765 15.1608 22.0689 15.159 22.0613C15.1571 22.0528 15.1554 22.0442 15.154 22.0356C15.1515 22.0204 15.1498 22.0051 15.1489 21.9897C15.1481 21.9774 15.1478 21.965 15.1481 21.9526V14.8806H10.6979V21.9526C10.6987 21.9934 10.694 22.0341 10.684 22.0735C10.6793 22.092 10.6735 22.1101 10.6665 22.1279C10.6447 22.1837 10.612 22.2347 10.5705 22.2779C10.5288 22.3211 10.4792 22.3556 10.4243 22.3796C10.4077 22.3868 10.3909 22.393 10.3737 22.3982C10.3338 22.4103 10.2922 22.4169 10.2503 22.4177H5.03274C5.0045 22.4171 4.97648 22.414 4.94891 22.4083C4.91803 22.4019 4.88784 22.3923 4.85877 22.3796C4.80385 22.3556 4.7542 22.3211 4.71258 22.2779C4.67104 22.2347 4.63836 22.1837 4.6165 22.1279C4.59464 22.0721 4.58398 22.0125 4.58518 21.9526V13.2729H1.46295L1.4459 13.2732L1.43268 13.2729H1.40376V13.2708C1.34667 13.2648 1.29115 13.2477 1.2403 13.2205C1.21881 13.209 1.19838 13.1957 1.17915 13.1809C1.16443 13.1696 1.15045 13.1573 1.13723 13.1443C1.11702 13.1242 1.09869 13.1022 1.08262 13.0785C1.01433 12.9786 0.986916 12.8565 1.00585 12.7371C1.0247 12.6177 1.08863 12.51 1.18433 12.4361L12.7471 3.65791C12.7755 3.63625 12.8069 3.61864 12.8401 3.60559H12.8605C12.9055 3.59058 12.9526 3.58275 13 3.58234C13.0332 3.58234 13.066 3.58615 13.098 3.59357L13.111 3.5968C13.1379 3.60393 13.1641 3.61366 13.1892 3.62585C13.2157 3.6387 13.2409 3.65428 13.2645 3.67244Z" fill="#666666"/>
</svg>
