<svg id="Layer_1" data-name="Layer 1" xmlns="http://www.w3.org/2000/svg" viewBox="0 0 90 90"><path d="M85.65,43.06,45.91,12.91A1.49,1.49,0,0,0,45,12.6a1.56,1.56,0,0,0-.48.08l-.07,0,0,0a1.33,1.33,0,0,0-.32.18L4.35,43.06A1.63,1.63,0,0,0,4,45.27a1.53,1.53,0,0,0,1.25.67,1.49,1.49,0,0,0,.91-.31l9.89-7.5V75.8a1.57,1.57,0,0,0,1.54,1.6H35.54a1.57,1.57,0,0,0,1.54-1.6V51.47H52.39V75.8a1.57,1.57,0,0,0,1.54,1.6H72.74a1.57,1.57,0,0,0,1.54-1.6V38.39l9.55,7.24a1.49,1.49,0,0,0,.91.31A1.53,1.53,0,0,0,86,45.27,1.63,1.63,0,0,0,85.65,43.06ZM34,49.88V74.21H19.14V36.33L45,16.19,71.2,36.34V74.21H55.47V49.88a1.57,1.57,0,0,0-1.54-1.6H35.54A1.58,1.58,0,0,0,34,49.88Z"/></svg>