<svg width="26" height="26" viewBox="0 0 26 26" fill="none" xmlns="http://www.w3.org/2000/svg">
<path d="M21.4711 10.2896L15.8205 9.46836L13.2945 4.34742C13.2255 4.20721 13.112 4.09371 12.9718 4.02471C12.6202 3.85112 12.1929 3.99578 12.017 4.34742L9.49107 9.46836L3.84046 10.2896C3.68467 10.3118 3.54223 10.3853 3.43318 10.4966C3.30135 10.6321 3.2287 10.8144 3.2312 11.0034C3.23371 11.1924 3.31116 11.3727 3.44654 11.5047L7.53483 15.4906L6.56895 21.119C6.5463 21.2499 6.56079 21.3846 6.61077 21.5077C6.66076 21.6308 6.74424 21.7374 6.85175 21.8155C6.95926 21.8936 7.08649 21.94 7.21903 21.9495C7.35156 21.9589 7.4841 21.931 7.6016 21.869L12.6558 19.2117L17.7099 21.869C17.8479 21.9424 18.0082 21.9669 18.1617 21.9402C18.549 21.8734 18.8094 21.5062 18.7426 21.119L17.7767 15.4906L21.865 11.5047C21.9763 11.3957 22.0497 11.2532 22.072 11.0974C22.1321 10.708 21.8606 10.3474 21.4711 10.2896ZM16.0564 14.9298L16.8598 19.6101L12.6558 17.4024L8.45175 19.6123L9.25516 14.932L5.85456 11.616L10.5549 10.9328L12.6558 6.67532L14.7567 10.9328L19.457 11.616L16.0564 14.9298Z" fill="#666666"/>
</svg>
