<svg width="26" height="26" viewBox="0 0 26 26" fill="none" xmlns="http://www.w3.org/2000/svg">
<path d="M21.6617 10.4639L16.0111 9.6427L13.4851 4.52176C13.4161 4.38155 13.3026 4.26805 13.1624 4.19906C12.8108 4.02547 12.3835 4.17013 12.2077 4.52176L9.68168 9.6427L4.03107 10.4639C3.87528 10.4862 3.73285 10.5596 3.6238 10.6709C3.49196 10.8064 3.41931 10.9887 3.42182 11.1777C3.42432 11.3668 3.50177 11.5471 3.63715 11.6791L7.72544 15.665L6.75957 21.2933C6.73691 21.4243 6.7514 21.5589 6.80139 21.682C6.85137 21.8052 6.93485 21.9118 7.04236 21.9899C7.14987 22.068 7.27711 22.1144 7.40964 22.1238C7.54218 22.1333 7.67471 22.1054 7.79221 22.0433L12.8464 19.3861L17.9006 22.0433C18.0385 22.1168 18.1988 22.1413 18.3523 22.1146C18.7396 22.0478 19 21.6806 18.9332 21.2933L17.9673 15.665L22.0556 11.6791C22.1669 11.57 22.2403 11.4276 22.2626 11.2718C22.3227 10.8823 22.0512 10.5218 21.6617 10.4639Z" fill="#666666"/>
</svg>
