<svg id="Layer_1" data-name="Layer 1" xmlns="http://www.w3.org/2000/svg" viewBox="0 0 90 90"><path d="M12.64,72.9a4.44,4.44,0,0,0,4.43,4.43,5.92,5.92,0,0,0,4.35-1.84L45.85,50.38l4.22,4.22-.27.27a2.67,2.67,0,0,0-.07,3.74c3.54,3.81,15,16.2,15.31,16.54l.07.07a7,7,0,0,0,9.87,0l.34-.34a6.9,6.9,0,0,0,0-9.8L58.44,49.84A2.66,2.66,0,0,0,54.7,50l-.07.07-4.22-4.22,6.4-6.6.06-.07a5.4,5.4,0,0,1,3.75-1.56,4.61,4.61,0,0,1,1.36.2,10.5,10.5,0,0,0,2.58.48,12.81,12.81,0,0,0,9-3.74l.28-.28a12.51,12.51,0,0,0,3.47-8.09,1.23,1.23,0,0,0-.55-1,1.18,1.18,0,0,0-1.15,0L69.26,29a1.23,1.23,0,0,1-1.09.06,8.66,8.66,0,0,1-4.7-6.87A1.12,1.12,0,0,1,64,21.05l7.42-4.42a1.11,1.11,0,0,0,0-1.91,12.39,12.39,0,0,0-6.6-2,11.86,11.86,0,0,0-8.71,3.68,13.32,13.32,0,0,0-3.68,12A5.32,5.32,0,0,1,50.89,33l-6.81,6.6L27.41,22.89a1.29,1.29,0,0,1-.34-.75v-.75A4.79,4.79,0,0,0,24.35,17l-8-4a1.16,1.16,0,0,0-1.3.21l-1.9,1.9A1.15,1.15,0,0,0,13,16.42l4,8.1a4.83,4.83,0,0,0,4.35,2.72h.75a1,1,0,0,1,.75.34l16.6,16.61-25,24.43a5.65,5.65,0,0,0-1.77,4.28ZM48.78,44.26l-3.07-3.07,6.74-6.6A7.68,7.68,0,0,0,54.63,28a11.17,11.17,0,0,1,3.06-10.07,9.67,9.67,0,0,1,7-3.06,11.9,11.9,0,0,1,3.81.82l-5.72,3.47a3.41,3.41,0,0,0-1.63,3.19A10.78,10.78,0,0,0,67.08,31a3.16,3.16,0,0,0,3.27-.14L74.7,28.2a11.22,11.22,0,0,1-2.45,4.42A10.65,10.65,0,0,1,64.56,36a7.57,7.57,0,0,1-2-.4,8.91,8.91,0,0,0-2-.28,7.46,7.46,0,0,0-5.38,2.25ZM51.36,56.5l4.83-4.83a.46.46,0,0,1,.68,0L73.68,66.85A4.71,4.71,0,0,1,75,70.18a4.84,4.84,0,0,1-1.43,3.34l-.34.34a4.84,4.84,0,0,1-3.34,1.36,5,5,0,0,1-3.4-1.43v.07c-.34-.41-.82-1-1.7-1.84L51.16,57.39c0-.41,0-.75.2-.89ZM24.48,26A3.39,3.39,0,0,0,22.1,25h-.75A2.66,2.66,0,0,1,19,23.57l-3.67-7.35.74-.75,7.35,3.68a2.63,2.63,0,0,1,1.43,2.31v.75a3.37,3.37,0,0,0,1,2.38L53,51.74l-1.43,1.43Zm-9.59,47a4,4,0,0,1,1.16-2.79l25-24.36,3.13,3.13L19.92,74a3.79,3.79,0,0,1-2.72,1.16,2.05,2.05,0,0,1-1.56-.68,2.26,2.26,0,0,1-.75-1.57Z"/></svg>