<svg width="26" height="26" viewBox="0 0 26 26" fill="none" xmlns="http://www.w3.org/2000/svg">
<path d="M6.32998 4.27099C6.95403 4.04837 7.62845 4.00745 8.27484 4.15299C8.92122 4.29854 9.51302 4.62457 9.98142 5.09319C10.4498 5.5618 10.7756 6.15374 10.9209 6.80019C11.0661 7.44664 11.0249 8.12105 10.802 8.74499L21.647 19.59L19.525 21.711L8.67998 10.867C8.05593 11.0896 7.38151 11.1305 6.73513 10.985C6.08874 10.8394 5.49694 10.5134 5.02854 10.0448C4.56014 9.57619 4.23437 8.98425 4.08911 8.3378C3.94386 7.69135 3.98508 7.01694 4.20798 6.39299L6.44398 8.62999C6.58235 8.77326 6.74787 8.88753 6.93088 8.96615C7.11388 9.04476 7.31071 9.08614 7.50988 9.08787C7.70905 9.0896 7.90657 9.05165 8.09091 8.97623C8.27526 8.9008 8.44274 8.78943 8.58357 8.64859C8.72441 8.50775 8.83579 8.34027 8.91121 8.15592C8.98664 7.97158 9.02459 7.77406 9.02286 7.57489C9.02113 7.37572 8.97975 7.17889 8.90113 6.99589C8.82252 6.81288 8.70825 6.64736 8.56498 6.50899L6.32898 4.26999L6.32998 4.27099ZM16.697 6.15499L19.879 4.38699L21.293 5.80099L19.525 8.98299L17.757 9.33699L15.637 11.458L14.222 10.044L16.343 7.92299L16.697 6.15499ZM9.62598 13.933L11.747 16.055L6.79698 21.005C6.52402 21.2754 6.1577 21.4308 5.77356 21.439C5.38943 21.4473 5.01677 21.3078 4.73244 21.0494C4.4481 20.791 4.27378 20.4333 4.24541 20.0501C4.21705 19.6669 4.3368 19.2875 4.57998 18.99L4.67698 18.883L9.62698 13.933H9.62598Z" fill="#666666"/>
</svg>
