<svg id="Layer_1" data-name="Layer 1" xmlns="http://www.w3.org/2000/svg" viewBox="0 0 90 90"><path d="M58.7,49.53a3.18,3.18,0,0,0-2.09-.79,3,3,0,0,0-2,.74L51,45.82l6.19-6.38A4.94,4.94,0,0,1,60.62,38a3.86,3.86,0,0,1,1.25.19,10.92,10.92,0,0,0,2.69.49,13.33,13.33,0,0,0,9.34-3.86l.28-.28a13,13,0,0,0,3.58-8.37A1.61,1.61,0,0,0,77,24.79a1.45,1.45,0,0,0-.76-.21,1.84,1.84,0,0,0-.81.21l-6.4,3.81a.74.74,0,0,1-.39.11.91.91,0,0,1-.31-.05,8.24,8.24,0,0,1-4.48-6.58.72.72,0,0,1,.35-.68L71.64,17a1.5,1.5,0,0,0,0-2.58,12.6,12.6,0,0,0-6.79-2.11h-.45a12.4,12.4,0,0,0-8.57,3.8A13.71,13.71,0,0,0,52.06,28.4a4.89,4.89,0,0,1-1.45,4.27L44.09,39,27.69,22.61a.85.85,0,0,1-.22-.47v-.75a5.18,5.18,0,0,0-2.94-4.71l-8-4a1.59,1.59,0,0,0-1.76.28l-1.9,1.91a1.52,1.52,0,0,0-.28,1.75l4,8.1a5.24,5.24,0,0,0,4.71,2.94h.75a.59.59,0,0,1,.47.23L38.88,44.18,14.15,68.32a6.05,6.05,0,0,0-1.91,4.58,4.81,4.81,0,0,0,4.83,4.83,6.31,6.31,0,0,0,4.64-2L45.86,51,49.5,54.6a3.09,3.09,0,0,0-.06,4.29c1.55,1.66,4.61,5,7.59,8.2,3.87,4.19,7.53,8.15,7.79,8.41a7.39,7.39,0,0,0,10.44,0l.34-.34a7.29,7.29,0,0,0,0-10.38Zm-15-.64-24,24.82a3.39,3.39,0,0,1-2.44,1,1.68,1.68,0,0,1-1.28-.56,1.9,1.9,0,0,1-.63-1.29,3.59,3.59,0,0,1,1-2.5L41.08,46.31ZM55,27.93A10.78,10.78,0,0,1,58,18.2a9.34,9.34,0,0,1,6.51-2.94h.2a11.89,11.89,0,0,1,2.91.51l-5,3a3.82,3.82,0,0,0-1.82,3.57,11.18,11.18,0,0,0,6.13,9,3.68,3.68,0,0,0,1.73.44,3.54,3.54,0,0,0,1.94-.59L74,29.12a10.71,10.71,0,0,1-2,3.23,10.33,10.33,0,0,1-7.4,3.2,8.83,8.83,0,0,1-1.88-.39,9.3,9.3,0,0,0-2.06-.29A7.87,7.87,0,0,0,55,37.24l-6.18,6.44L46.28,41.2l6.45-6.32A8.07,8.07,0,0,0,55,27.93ZM66.56,73.35a21.16,21.16,0,0,0-1.5-1.6L51.56,57.23a.78.78,0,0,1,.09-.44L56.48,52h.13L73.4,67.13a4.3,4.3,0,0,1,1.17,3.05,4.43,4.43,0,0,1-1.31,3l-.34.34a4.4,4.4,0,0,1-3,1.25,4.6,4.6,0,0,1-3.13-1.32Zm-41-48.48L52.43,51.74l-.86.86L24.77,25.67A3.78,3.78,0,0,0,22.1,24.6h-.75a2.25,2.25,0,0,1-2-1.21L15.85,16.3l.34-.34,7.08,3.54a2.22,2.22,0,0,1,1.22,2v.75A3.77,3.77,0,0,0,25.56,24.87Z"/></svg>