<svg width="26" height="26" viewBox="0 0 26 26" fill="none" xmlns="http://www.w3.org/2000/svg">
<path fill-rule="evenodd" clip-rule="evenodd" d="M19.7071 7.70711C20.0976 7.31658 20.0976 6.68342 19.7071 6.29289C19.3166 5.90237 18.6834 5.90237 18.2929 6.29289L13 11.5858L7.70711 6.29289C7.31658 5.90237 6.68342 5.90237 6.29289 6.29289C5.90237 6.68342 5.90237 7.31658 6.29289 7.70711L11.5858 13L6.29289 18.2929C5.90237 18.6834 5.90237 19.3166 6.29289 19.7071C6.68342 20.0976 7.31658 20.0976 7.70711 19.7071L13 14.4142L18.2929 19.7071C18.6834 20.0976 19.3166 20.0976 19.7071 19.7071C20.0976 19.3166 20.0976 18.6834 19.7071 18.2929L14.4142 13L19.7071 7.70711Z" fill="#666666"/>
</svg>
