<svg width="26" height="26" viewBox="0 0 26 26" fill="none" xmlns="http://www.w3.org/2000/svg">
<path d="M20.92 9.76C20.9208 9.66428 20.9021 9.5694 20.865 9.48118C20.8278 9.39296 20.773 9.31327 20.704 9.247L15.673 4.20701C15.5358 4.07329 15.3515 3.99893 15.16 4.00001H6.52C6.13809 4.00001 5.77182 4.15173 5.50177 4.42178C5.23171 4.69183 5.08 5.0581 5.08 5.44001V13.36C5.08 13.551 5.15586 13.7341 5.29088 13.8691C5.42591 14.0041 5.60904 14.08 5.8 14.08C5.99095 14.08 6.17409 14.0041 6.30911 13.8691C6.44414 13.7341 6.52 13.551 6.52 13.36V5.44001H14.44V9.76C14.44 9.95096 14.5158 10.1341 14.6509 10.2691C14.7859 10.4041 14.969 10.48 15.16 10.48H19.48V13.36C19.48 13.551 19.5558 13.7341 19.6909 13.8691C19.8259 14.0041 20.009 14.08 20.2 14.08C20.3909 14.08 20.5741 14.0041 20.7091 13.8691C20.8441 13.7341 20.92 13.551 20.92 13.36V9.76ZM15.88 6.45701L18.463 9.04H15.88V6.45701ZM18.04 16.24H16.6C16.409 16.24 16.2259 16.3158 16.0909 16.4509C15.9558 16.5859 15.88 16.769 15.88 16.96V21.28C15.88 21.4709 15.9558 21.6541 16.0909 21.7891C16.2259 21.9241 16.409 22 16.6 22C16.7909 22 16.9741 21.9241 17.1091 21.7891C17.2441 21.6541 17.32 21.4709 17.32 21.28V20.56H18.04C18.6128 20.56 19.1622 20.3324 19.5673 19.9273C19.9724 19.5223 20.2 18.9729 20.2 18.4C20.2 17.8271 19.9724 17.2777 19.5673 16.8726C19.1622 16.4676 18.6128 16.24 18.04 16.24ZM18.04 19.12H17.32V17.68H18.04C18.2309 17.68 18.4141 17.7558 18.5491 17.8909C18.6841 18.0259 18.76 18.209 18.76 18.4C18.76 18.5909 18.6841 18.7741 18.5491 18.9091C18.4141 19.0441 18.2309 19.12 18.04 19.12ZM13.72 16.96V21.28C13.72 21.4709 13.6441 21.6541 13.5091 21.7891C13.3741 21.9241 13.1909 22 13 22C12.809 22 12.6259 21.9241 12.4909 21.7891C12.3558 21.6541 12.28 21.4709 12.28 21.28V16.96C12.28 16.769 12.3558 16.5859 12.4909 16.4509C12.6259 16.3158 12.809 16.24 13 16.24C13.1909 16.24 13.3741 16.3158 13.5091 16.4509C13.6441 16.5859 13.72 16.769 13.72 16.96ZM10.12 21.28C10.12 21.4709 10.0441 21.6541 9.90911 21.7891C9.77408 21.9241 9.59095 22 9.39999 22H6.52C6.3892 22.001 6.2606 21.9663 6.14802 21.8997C6.03544 21.8331 5.94313 21.7371 5.881 21.622C5.8225 21.5064 5.79505 21.3776 5.80136 21.2482C5.80768 21.1188 5.84752 20.9933 5.917 20.884L8.05899 17.68H6.52C6.32904 17.68 6.14591 17.6041 6.01088 17.4691C5.87586 17.3341 5.8 17.1509 5.8 16.96C5.8 16.769 5.87586 16.5859 6.01088 16.4509C6.14591 16.3158 6.32904 16.24 6.52 16.24H9.39999C9.53079 16.239 9.65939 16.2737 9.77197 16.3403C9.88455 16.4069 9.97686 16.5029 10.039 16.618C10.0975 16.7336 10.1249 16.8624 10.1186 16.9918C10.1123 17.1211 10.0725 17.2467 10.003 17.356L7.861 20.56H9.39999C9.59095 20.56 9.77408 20.6358 9.90911 20.7709C10.0441 20.9059 10.12 21.089 10.12 21.28Z" fill="#666666"/>
</svg>
