<svg xmlns="http://www.w3.org/2000/svg" viewBox="0 0 480 294" width="480" height="294" preserveAspectRatio="xMidYMid meet" style="width: 100%; height: 100%; transform: translate3d(0px, 0px, 0px); content-visibility: visible;"><defs><clipPath id="__lottie_element_234"><rect width="480" height="294" x="0" y="0"></rect></clipPath><mask id="__lottie_element_239"><path fill="#ffffff" clip-rule="nonzero" d=" M116.375,1.25 C116.375,1.25 104,1.25 104,1.25 C104,1.25 104.125,10.625 104.125,10.625 C104.125,10.625 109.875,10.625 109.875,10.625 C109.875,10.625 116.375,10.625 116.375,10.625 C116.375,10.625 116.375,8.982999801635742 116.375,8.982999801635742 C116.375,8.982999801635742 116.375,6.289999961853027 116.375,6.289999961853027 C116.375,6.289999961853027 116.375,5.875 116.375,5.875 C116.375,5.875 116.375,1.25 116.375,1.25" fill-opacity="1"></path><path fill="#ffffff" clip-rule="nonzero" d=" M209,7.5 C209,7.5 99,66.5 99,66.5 C99,66.5 98.5,141 98.5,141 C98.5,141 254,139 254,139 C254,139 254,36.5 254,36.5 C254,36.5 209,7.5 209,7.5" fill-opacity="0.02"></path></mask></defs><g clip-path="url(#__lottie_element_234)"><g transform="matrix(1,0,0,1,62,38)" opacity="1" style="display: block;"><g opacity="1" transform="matrix(1,0,0,1,175.7689971923828,74.63999938964844)"><path fill="rgb(255,255,255)" fill-opacity="1" d=" M26.966999053955078,-59.45000076293945 C26.966999053955078,-59.45000076293945 14.675000190734863,-52.35200119018555 14.675000190734863,-52.35200119018555 C14.675000190734863,-52.35200119018555 52.566001892089844,-30.472999572753906 52.566001892089844,-30.472999572753906 C59.6150016784668,-26.402000427246094 59.409000396728516,-27.43899917602539 59.349998474121094,-19.21500015258789 C59.349998474121094,-19.21500015258789 59.349998474121094,40.15999984741211 59.349998474121094,40.15999984741211 C59.349998474121094,40.15999984741211 59.349998474121094,40.29999923706055 59.349998474121094,40.29999923706055 C59.349998474121094,40.29999923706055 59.492000579833984,40.29999923706055 59.492000579833984,40.29999923706055 C59.492000579833984,40.29999923706055 59.492000579833984,43.736000061035156 59.492000579833984,43.736000061035156 C59.492000579833984,45.64099884033203 57.93199920654297,47.19900131225586 56.027000427246094,47.19900131225586 C56.027000427246094,47.19900131225586 53.875999450683594,47.19900131225586 53.875999450683594,47.19900131225586 C53.875999450683594,47.19900131225586 52.91899871826172,47.19900131225586 52.91899871826172,47.19900131225586 C52.91899871826172,47.19900131225586 52.75699996948242,47.19900131225586 52.75699996948242,47.19900131225586 C52.75699996948242,47.19900131225586 52.59600067138672,47.19900131225586 52.59600067138672,47.19900131225586 C52.59600067138672,47.19900131225586 52.55699920654297,47.19900131225586 52.55699920654297,47.19900131225586 C52.55699920654297,47.19900131225586 -51.875999450683594,47.19900131225586 -51.875999450683594,47.19900131225586 C-51.875999450683594,47.19900131225586 -52.45100021362305,47.198001861572266 -52.45100021362305,47.198001861572266 C-52.45100021362305,47.198001861572266 -52.45100021362305,47.19900131225586 -52.45100021362305,47.19900131225586 C-52.45100021362305,47.19900131225586 -55.88600158691406,47.19900131225586 -55.88600158691406,47.19900131225586 C-57.79100036621094,47.19900131225586 -59.349998474121094,45.64099884033203 -59.349998474121094,43.736000061035156 C-59.349998474121094,43.736000061035156 -59.349998474121094,41.39400100708008 -59.349998474121094,41.39400100708008 C-59.356998443603516,40.58399963378906 -59.349998474121094,39.66600036621094 -59.349998474121094,38.62300109863281 C-59.349998474121094,38.62300109863281 -59.349998474121094,-9.529000282287598 -59.349998474121094,-9.529000282287598 C-59.349998474121094,-9.529000282287598 -71.74199676513672,-2.4100000858306885 -71.74199676513672,-2.4100000858306885 C-71.74199676513672,-2.4100000858306885 -71.74199676513672,-0.9240000247955322 -71.74199676513672,-0.9240000247955322 C-71.74199676513672,-0.9240000247955322 -71.72000122070312,0.35600000619888306 -71.5999984741211,0.8989999890327454 C-71.5999984741211,0.8989999890327454 -71.5999984741211,48.45800018310547 -71.5999984741211,48.45800018310547 C-71.71299743652344,54.516998291015625 -60.69499969482422,59.45000076293945 -60.69499969482422,59.45000076293945 C-60.69499969482422,59.45000076293945 60.71500015258789,59.45000076293945 60.71500015258789,59.45000076293945 C60.71500015258789,59.45000076293945 71.70700073242188,54.54399871826172 71.74199676513672,48.507999420166016 C71.74199676513672,48.507999420166016 71.74199676513672,-30.06599998474121 71.74199676513672,-30.06599998474121 C71.7229995727539,-32.2599983215332 70.55400085449219,-34.29100036621094 68.65299987792969,-35.388999938964844 C68.65299987792969,-35.388999938964844 26.966999053955078,-59.45000076293945 26.966999053955078,-59.45000076293945z"></path></g><g opacity="1" transform="matrix(1,0,0,1,146.02099609375,27.7189998626709)"><path fill="rgb(255,255,255)" fill-opacity="1" d=" M-42.01300048828125,27.4689998626709 C-42.01300048828125,27.4689998626709 -42.01300048828125,-13.015000343322754 -42.01300048828125,-13.015000343322754 C-41.98500061035156,-13.211999893188477 -41.81999969482422,-13.378000259399414 -41.61899948120117,-13.359999656677246 C-41.61899948120117,-13.359999656677246 -30.006999969482422,-13.359999656677246 -30.006999969482422,-13.359999656677246 C-29.83300018310547,-13.378000259399414 -29.67099952697754,-13.217000007629395 -29.76300048828125,-13.020000457763672 C-29.76300048828125,-13.020000457763672 -29.76300048828125,6.15500020980835 -29.76300048828125,6.15500020980835 C-29.76300048828125,6.15500020980835 26.673999786376953,-26.368000030517578 26.673999786376953,-26.368000030517578 C28.582000732421875,-27.4689998626709 30.944000244140625,-27.461999893188477 32.840999603271484,-26.34000015258789 C32.840999603271484,-26.34000015258789 42.01300048828125,-21.04599952697754 42.01300048828125,-21.04599952697754 C42.01300048828125,-21.04599952697754 -42.01300048828125,27.4689998626709 -42.01300048828125,27.4689998626709z"></path></g></g><g mask="url(#__lottie_element_239)" transform="matrix(1,0,0,1,62,38)" opacity="1" style="display: block;"><g opacity="1" transform="matrix(1,0,0,1,175.7689971923828,74.63999938964844)"><path fill="rgb(255,255,255)" fill-opacity="1" d=" M26.966999053955078,-59.45000076293945 C26.966999053955078,-59.45000076293945 14.675000190734863,-52.35200119018555 14.675000190734863,-52.35200119018555 C14.675000190734863,-52.35200119018555 52.566001892089844,-30.472999572753906 52.566001892089844,-30.472999572753906 C59.6150016784668,-26.402000427246094 59.409000396728516,-27.43899917602539 59.349998474121094,-19.21500015258789 C59.349998474121094,-19.21500015258789 59.349998474121094,40.15999984741211 59.349998474121094,40.15999984741211 C59.349998474121094,40.15999984741211 59.349998474121094,40.29999923706055 59.349998474121094,40.29999923706055 C59.349998474121094,40.29999923706055 59.492000579833984,40.29999923706055 59.492000579833984,40.29999923706055 C59.492000579833984,40.29999923706055 59.492000579833984,43.736000061035156 59.492000579833984,43.736000061035156 C59.492000579833984,45.64099884033203 57.93199920654297,47.19900131225586 56.027000427246094,47.19900131225586 C56.027000427246094,47.19900131225586 53.875999450683594,47.19900131225586 53.875999450683594,47.19900131225586 C53.875999450683594,47.19900131225586 52.91899871826172,47.19900131225586 52.91899871826172,47.19900131225586 C52.91899871826172,47.19900131225586 52.75699996948242,47.19900131225586 52.75699996948242,47.19900131225586 C52.75699996948242,47.19900131225586 52.59600067138672,47.19900131225586 52.59600067138672,47.19900131225586 C52.59600067138672,47.19900131225586 52.55699920654297,47.19900131225586 52.55699920654297,47.19900131225586 C52.55699920654297,47.19900131225586 -51.875999450683594,47.19900131225586 -51.875999450683594,47.19900131225586 C-51.875999450683594,47.19900131225586 -52.45100021362305,47.198001861572266 -52.45100021362305,47.198001861572266 C-52.45100021362305,47.198001861572266 -52.45100021362305,47.19900131225586 -52.45100021362305,47.19900131225586 C-52.45100021362305,47.19900131225586 -55.88600158691406,47.19900131225586 -55.88600158691406,47.19900131225586 C-57.79100036621094,47.19900131225586 -59.349998474121094,45.64099884033203 -59.349998474121094,43.736000061035156 C-59.349998474121094,43.736000061035156 -59.349998474121094,41.39400100708008 -59.349998474121094,41.39400100708008 C-59.356998443603516,40.58399963378906 -59.349998474121094,39.66600036621094 -59.349998474121094,38.62300109863281 C-59.349998474121094,38.62300109863281 -59.349998474121094,-9.529000282287598 -59.349998474121094,-9.529000282287598 C-59.349998474121094,-9.529000282287598 -71.74199676513672,-2.4100000858306885 -71.74199676513672,-2.4100000858306885 C-71.74199676513672,-2.4100000858306885 -71.74199676513672,-0.9240000247955322 -71.74199676513672,-0.9240000247955322 C-71.74199676513672,-0.9240000247955322 -71.72000122070312,0.35600000619888306 -71.5999984741211,0.8989999890327454 C-71.5999984741211,0.8989999890327454 -71.5999984741211,48.45800018310547 -71.5999984741211,48.45800018310547 C-71.71299743652344,54.516998291015625 -60.69499969482422,59.45000076293945 -60.69499969482422,59.45000076293945 C-60.69499969482422,59.45000076293945 60.71500015258789,59.45000076293945 60.71500015258789,59.45000076293945 C60.71500015258789,59.45000076293945 71.70700073242188,54.54399871826172 71.74199676513672,48.507999420166016 C71.74199676513672,48.507999420166016 71.74199676513672,-30.06599998474121 71.74199676513672,-30.06599998474121 C71.7229995727539,-32.2599983215332 70.55400085449219,-34.29100036621094 68.65299987792969,-35.388999938964844 C68.65299987792969,-35.388999938964844 26.966999053955078,-59.45000076293945 26.966999053955078,-59.45000076293945z"></path></g><g opacity="1" transform="matrix(1,0,0,1,146.02099609375,27.7189998626709)"><path fill="rgb(0,226,220)" fill-opacity="1" d=" M-42.01300048828125,27.4689998626709 C-42.01300048828125,27.4689998626709 -42.01300048828125,-13.015000343322754 -42.01300048828125,-13.015000343322754 C-41.98500061035156,-13.211999893188477 -41.81999969482422,-13.378000259399414 -41.61899948120117,-13.359999656677246 C-41.61899948120117,-13.359999656677246 -30.006999969482422,-13.359999656677246 -30.006999969482422,-13.359999656677246 C-29.83300018310547,-13.378000259399414 -29.67099952697754,-13.217000007629395 -29.76300048828125,-13.020000457763672 C-29.76300048828125,-13.020000457763672 -29.76300048828125,6.15500020980835 -29.76300048828125,6.15500020980835 C-29.76300048828125,6.15500020980835 26.673999786376953,-26.368000030517578 26.673999786376953,-26.368000030517578 C28.582000732421875,-27.4689998626709 30.944000244140625,-27.461999893188477 32.840999603271484,-26.34000015258789 C32.840999603271484,-26.34000015258789 42.01300048828125,-21.04599952697754 42.01300048828125,-21.04599952697754 C42.01300048828125,-21.04599952697754 -42.01300048828125,27.4689998626709 -42.01300048828125,27.4689998626709z"></path></g></g><g transform="matrix(1,0,0,1,-373.75,254.5)" opacity="1" style="display: block;"><g opacity="0" transform="matrix(1,0,0,1,19.188146591186523,0)"><path fill="rgb(255,255,255)" fill-opacity="1" d=" M334.6759948730469,-12.664999961853027 C334.6759948730469,-12.664999961853027 342.60400390625,-30.018999099731445 342.60400390625,-30.018999099731445 C342.60400390625,-30.018999099731445 350.5320129394531,-12.664999961853027 350.5320129394531,-12.664999961853027 C350.5320129394531,-12.664999961853027 334.6759948730469,-12.664999961853027 334.6759948730469,-12.664999961853027z M356.28399658203125,0 C356.28399658203125,0 358.8949890136719,0 358.8949890136719,0 C358.8949890136719,0 343.81298828125,-32.87099838256836 343.81298828125,-32.87099838256836 C343.81298828125,-32.87099838256836 341.4440002441406,-32.87099838256836 341.4440002441406,-32.87099838256836 C341.4440002441406,-32.87099838256836 326.3139953613281,0 326.3139953613281,0 C326.3139953613281,0 328.92401123046875,0 328.92401123046875,0 C328.92401123046875,0 333.7099914550781,-10.489999771118164 333.7099914550781,-10.489999771118164 C333.7099914550781,-10.489999771118164 351.4989929199219,-10.489999771118164 351.4989929199219,-10.489999771118164 C351.4989929199219,-10.489999771118164 356.28399658203125,0 356.28399658203125,0z"></path></g><g opacity="0" transform="matrix(1,0,0,1,21.585697174072266,0)"><path fill="rgb(255,255,255)" fill-opacity="1" d=" M317.6400146484375,-32.87099838256836 C317.6400146484375,-32.87099838256836 315.17401123046875,-32.87099838256836 315.17401123046875,-32.87099838256836 C315.17401123046875,-32.87099838256836 315.17401123046875,-11.697999954223633 315.17401123046875,-11.697999954223633 C315.17401123046875,-8.571999549865723 314.3599853515625,-6.123000144958496 312.7330017089844,-4.35099983215332 C311.1059875488281,-2.5789999961853027 308.9549865722656,-1.6920000314712524 306.2799987792969,-1.6920000314712524 C303.7659912109375,-1.6920000314712524 301.7200012207031,-2.328000068664551 300.1409912109375,-3.6010000705718994 C298.56201171875,-4.874000072479248 297.56201171875,-6.65500020980835 297.14300537109375,-8.942999839782715 C297.14300537109375,-8.942999839782715 294.6780090332031,-8.942999839782715 294.6780090332031,-8.942999839782715 C295.1289978027344,-5.978000164031982 296.37799072265625,-3.6500000953674316 298.42401123046875,-1.9579999446868896 C300.4700012207031,-0.26600000262260437 303.0409851074219,0.5799999833106995 306.135009765625,0.5799999833106995 C309.64801025390625,0.5799999833106995 312.4429931640625,-0.5 314.5220031738281,-2.6589999198913574 C316.60101318359375,-4.817999839782715 317.6400146484375,-7.815000057220459 317.6400146484375,-11.649999618530273 C317.6400146484375,-11.649999618530273 317.6400146484375,-32.87099838256836 317.6400146484375,-32.87099838256836z"></path></g><g opacity="0" transform="matrix(1,0,0,1,24.676897048950195,0)"><path fill="rgb(255,255,255)" fill-opacity="1" d=" M281.72900390625,-32.87099838256836 C281.72900390625,-32.87099838256836 281.72900390625,-4.060999870300293 281.72900390625,-4.060999870300293 C281.72900390625,-4.060999870300293 258.96099853515625,-32.87099838256836 258.96099853515625,-32.87099838256836 C258.96099853515625,-32.87099838256836 256.7860107421875,-32.87099838256836 256.7860107421875,-32.87099838256836 C256.7860107421875,-32.87099838256836 256.7860107421875,0 256.7860107421875,0 C256.7860107421875,0 259.2030029296875,0 259.2030029296875,0 C259.2030029296875,0 259.2030029296875,-28.714000701904297 259.2030029296875,-28.714000701904297 C259.2030029296875,-28.714000701904297 281.8739929199219,0 281.8739929199219,0 C281.8739929199219,0 284.14599609375,0 284.14599609375,0 C284.14599609375,0 284.14599609375,-32.87099838256836 284.14599609375,-32.87099838256836 C284.14599609375,-32.87099838256836 281.72900390625,-32.87099838256836 281.72900390625,-32.87099838256836z"></path></g><g opacity="0" transform="matrix(1,0,0,1,27.86033821105957,0)"><path fill="rgb(255,255,255)" fill-opacity="1" d=" M239.8419952392578,-32.87099838256836 C239.8419952392578,-32.87099838256836 239.8419952392578,0 239.8419952392578,0 C239.8419952392578,0 242.25900268554688,0 242.25900268554688,0 C242.25900268554688,0 242.25900268554688,-32.87099838256836 242.25900268554688,-32.87099838256836 C242.25900268554688,-32.87099838256836 239.8419952392578,-32.87099838256836 239.8419952392578,-32.87099838256836z"></path></g><g opacity="0" transform="matrix(1,0,0,1,33.21691131591797,0)"><path fill="rgb(255,255,255)" fill-opacity="1" d=" M223.07400512695312,-32.87099838256836 C223.07400512695312,-32.87099838256836 223.07400512695312,-4.060999870300293 223.07400512695312,-4.060999870300293 C223.07400512695312,-4.060999870300293 200.30599975585938,-32.87099838256836 200.30599975585938,-32.87099838256836 C200.30599975585938,-32.87099838256836 198.1300048828125,-32.87099838256836 198.1300048828125,-32.87099838256836 C198.1300048828125,-32.87099838256836 198.1300048828125,0 198.1300048828125,0 C198.1300048828125,0 200.5469970703125,0 200.5469970703125,0 C200.5469970703125,0 200.5469970703125,-28.714000701904297 200.5469970703125,-28.714000701904297 C200.5469970703125,-28.714000701904297 223.218994140625,0 223.218994140625,0 C223.218994140625,0 225.49099731445312,0 225.49099731445312,0 C225.49099731445312,0 225.49099731445312,-32.87099838256836 225.49099731445312,-32.87099838256836 C225.49099731445312,-32.87099838256836 223.07400512695312,-32.87099838256836 223.07400512695312,-32.87099838256836z"></path></g><g opacity="0" transform="matrix(1,0,0,1,37.54861068725586,0)"><path fill="rgb(255,255,255)" fill-opacity="1" d=" M187.0570068359375,-30.64699935913086 C187.0570068359375,-30.64699935913086 187.0570068359375,-32.87099838256836 187.0570068359375,-32.87099838256836 C187.0570068359375,-32.87099838256836 164.6269989013672,-32.87099838256836 164.6269989013672,-32.87099838256836 C164.6269989013672,-32.87099838256836 164.6269989013672,0 164.6269989013672,0 C164.6269989013672,0 187.0570068359375,0 187.0570068359375,0 C187.0570068359375,0 187.0570068359375,-2.2720000743865967 187.0570068359375,-2.2720000743865967 C187.0570068359375,-2.2720000743865967 167.04400634765625,-2.2720000743865967 167.04400634765625,-2.2720000743865967 C167.04400634765625,-2.2720000743865967 167.04400634765625,-15.274999618530273 167.04400634765625,-15.274999618530273 C167.04400634765625,-15.274999618530273 185.1230010986328,-15.274999618530273 185.1230010986328,-15.274999618530273 C185.1230010986328,-15.274999618530273 185.1230010986328,-17.499000549316406 185.1230010986328,-17.499000549316406 C185.1230010986328,-17.499000549316406 167.04400634765625,-17.499000549316406 167.04400634765625,-17.499000549316406 C167.04400634765625,-17.499000549316406 167.04400634765625,-30.64699935913086 167.04400634765625,-30.64699935913086 C167.04400634765625,-30.64699935913086 187.0570068359375,-30.64699935913086 187.0570068359375,-30.64699935913086z"></path></g><g opacity="0" transform="matrix(1,0,0,1,47.97639465332031,0)"><path fill="rgb(255,255,255)" fill-opacity="1" d=" M140.1750030517578,-33.45100021362305 C136.75900268554688,-33.45100021362305 134.00399780273438,-32.637001037597656 131.90899658203125,-31.010000228881836 C129.81399536132812,-29.382999420166016 128.76699829101562,-27.21500015258789 128.76699829101562,-24.507999420166016 C128.76699829101562,-22.381000518798828 129.4669952392578,-20.617000579833984 130.86900329589844,-19.21500015258789 C132.27099609375,-17.812999725341797 134.3260040283203,-16.854999542236328 137.0330047607422,-16.339000701904297 C137.0330047607422,-16.339000701904297 143.5590057373047,-15.081999778747559 143.5590057373047,-15.081999778747559 C145.81500244140625,-14.663000106811523 147.51499938964844,-13.913999557495117 148.65899658203125,-12.833999633789062 C149.80299377441406,-11.753999710083008 150.375,-10.425000190734863 150.375,-8.845999717712402 C150.375,-6.622000217437744 149.51199340820312,-4.857999801635742 147.78799438476562,-3.552999973297119 C146.06399536132812,-2.247999906539917 143.76800537109375,-1.5950000286102295 140.89999389648438,-1.5950000286102295 C134.35800170898438,-1.5950000286102295 130.63499450683594,-4.5279998779296875 129.73300170898438,-10.392999649047852 C129.73300170898438,-10.392999649047852 127.26799774169922,-10.392999649047852 127.26799774169922,-10.392999649047852 C127.71900177001953,-6.8480000495910645 129.10499572753906,-4.132999897003174 131.4250030517578,-2.247999906539917 C133.7449951171875,-0.3630000054836273 136.87100219726562,0.5799999833106995 140.80299377441406,0.5799999833106995 C144.41200256347656,0.5799999833106995 147.3209991455078,-0.2980000078678131 149.5290069580078,-2.053999900817871 C151.73699951171875,-3.809999942779541 152.83999633789062,-6.15500020980835 152.83999633789062,-9.088000297546387 C152.83999633789062,-13.567000389099121 149.89100646972656,-16.339000701904297 143.99400329589844,-17.402000427246094 C143.99400329589844,-17.402000427246094 137.9510040283203,-18.611000061035156 137.9510040283203,-18.611000061035156 C133.53599548339844,-19.41699981689453 131.32899475097656,-21.39900016784668 131.32899475097656,-24.55699920654297 C131.32899475097656,-26.652000427246094 132.14300537109375,-28.30299949645996 133.77000427246094,-29.51099967956543 C135.39700317382812,-30.7189998626709 137.58099365234375,-31.323999404907227 140.32000732421875,-31.323999404907227 C146.08900451660156,-31.323999404907227 149.44000244140625,-28.988000869750977 150.375,-24.315000534057617 C150.375,-24.315000534057617 152.79200744628906,-24.315000534057617 152.79200744628906,-24.315000534057617 C152.3730010986328,-27.24799919128418 151.052001953125,-29.503999710083008 148.8280029296875,-31.08300018310547 C146.60400390625,-32.6619987487793 143.72000122070312,-33.45100021362305 140.1750030517578,-33.45100021362305z"></path></g><g opacity="0" transform="matrix(1,0,0,1,61.68090057373047,0)"><path fill="rgb(255,255,255)" fill-opacity="1" d=" M116.5770034790039,-32.87099838256836 C116.5770034790039,-32.87099838256836 114.16000366210938,-32.87099838256836 114.16000366210938,-32.87099838256836 C114.16000366210938,-32.87099838256836 114.16000366210938,-13.729000091552734 114.16000366210938,-13.729000091552734 C114.16000366210938,-10.24899959564209 113.11299896240234,-7.372000217437744 111.01799774169922,-5.099999904632568 C108.9229965209961,-2.828000068664551 106.18399810791016,-1.6920000314712524 102.80000305175781,-1.6920000314712524 C99.447998046875,-1.6920000314712524 96.7249984741211,-2.828000068664551 94.62999725341797,-5.099999904632568 C92.53500366210938,-7.372000217437744 91.48799896240234,-10.24899959564209 91.48799896240234,-13.729000091552734 C91.48799896240234,-13.729000091552734 91.48799896240234,-32.87099838256836 91.48799896240234,-32.87099838256836 C91.48799896240234,-32.87099838256836 89.07099914550781,-32.87099838256836 89.07099914550781,-32.87099838256836 C89.07099914550781,-32.87099838256836 89.07099914550781,-13.729000091552734 89.07099914550781,-13.729000091552734 C89.07099914550781,-9.539999961853027 90.33599853515625,-6.10699987411499 92.86599731445312,-3.431999921798706 C95.39600372314453,-0.7570000290870667 98.70700073242188,0.5799999833106995 102.80000305175781,0.5799999833106995 C106.89299774169922,0.5799999833106995 110.21199798583984,-0.7490000128746033 112.75800323486328,-3.4079999923706055 C115.30400085449219,-6.066999912261963 116.5770034790039,-9.506999969482422 116.5770034790039,-13.729000091552734 C116.5770034790039,-13.729000091552734 116.5770034790039,-32.87099838256836 116.5770034790039,-32.87099838256836z"></path></g><g opacity="0" transform="matrix(1,0,0,1,96,0)"><path fill="rgb(255,255,255)" fill-opacity="1" d=" M60.52799987792969,-1.7400000095367432 C56.435001373291016,-1.7400000095367432 52.97100067138672,-3.1659998893737793 50.1349983215332,-6.01800012588501 C47.29899978637695,-8.869999885559082 45.88100051879883,-12.343000411987305 45.88100051879883,-16.43600082397461 C45.88100051879883,-20.52899932861328 47.29899978637695,-24.009000778198242 50.1349983215332,-26.87700080871582 C52.97100067138672,-29.7450008392334 56.435001373291016,-31.179000854492188 60.52799987792969,-31.179000854492188 C64.62100219726562,-31.179000854492188 68.08499908447266,-29.7450008392334 70.9209976196289,-26.87700080871582 C73.75700378417969,-24.009000778198242 75.17500305175781,-20.52899932861328 75.17500305175781,-16.43600082397461 C75.17500305175781,-12.343000411987305 73.75700378417969,-8.869999885559082 70.9209976196289,-6.01800012588501 C68.08499908447266,-3.1659998893737793 64.62100219726562,-1.7400000095367432 60.52799987792969,-1.7400000095367432z M60.52799987792969,-33.45100021362305 C55.79100036621094,-33.45100021362305 51.75400161743164,-31.798999786376953 48.41899871826172,-28.496000289916992 C45.08399963378906,-25.19300079345703 43.415000915527344,-21.17300033569336 43.415000915527344,-16.43600082397461 C43.415000915527344,-11.699000358581543 45.08399963378906,-7.677999973297119 48.41899871826172,-4.375 C51.75400161743164,-1.0720000267028809 55.79100036621094,0.5799999833106995 60.52799987792969,0.5799999833106995 C65.26499938964844,0.5799999833106995 69.302001953125,-1.0720000267028809 72.63700103759766,-4.375 C75.97200012207031,-7.677999973297119 77.63999938964844,-11.699000358581543 77.63999938964844,-16.43600082397461 C77.63999938964844,-21.17300033569336 75.97200012207031,-25.19300079345703 72.63700103759766,-28.496000289916992 C69.302001953125,-31.798999786376953 65.26499938964844,-33.45100021362305 60.52799987792969,-33.45100021362305z"></path></g><g opacity="0" transform="matrix(1,0,0,1,172.8000030517578,0)"><path fill="rgb(255,255,255)" fill-opacity="1" d=" M28.858999252319336,-32.87099838256836 C28.858999252319336,-32.87099838256836 28.858999252319336,-17.451000213623047 28.858999252319336,-17.451000213623047 C28.858999252319336,-17.451000213623047 7.443999767303467,-17.451000213623047 7.443999767303467,-17.451000213623047 C7.443999767303467,-17.451000213623047 7.443999767303467,-32.87099838256836 7.443999767303467,-32.87099838256836 C7.443999767303467,-32.87099838256836 5.0269999504089355,-32.87099838256836 5.0269999504089355,-32.87099838256836 C5.0269999504089355,-32.87099838256836 5.0269999504089355,0 5.0269999504089355,0 C5.0269999504089355,0 7.443999767303467,0 7.443999767303467,0 C7.443999767303467,0 7.443999767303467,-15.22700023651123 7.443999767303467,-15.22700023651123 C7.443999767303467,-15.22700023651123 28.858999252319336,-15.22700023651123 28.858999252319336,-15.22700023651123 C28.858999252319336,-15.22700023651123 28.858999252319336,0 28.858999252319336,0 C28.858999252319336,0 31.275999069213867,0 31.275999069213867,0 C31.275999069213867,0 31.275999069213867,-32.87099838256836 31.275999069213867,-32.87099838256836 C31.275999069213867,-32.87099838256836 28.858999252319336,-32.87099838256836 28.858999252319336,-32.87099838256836z"></path></g></g><g transform="matrix(1,0,0,1,58.25,254.5)" opacity="1" style="display: none;"><g opacity="1" transform="matrix(1,0,0,1,0,0)"><path fill="rgb(235,235,235)" fill-opacity="1" d=" M336.18499755859375,-12.42300033569336 C336.18499755859375,-12.42300033569336 341.3580017089844,-24.992000579833984 341.3580017089844,-24.992000579833984 C341.3580017089844,-24.992000579833984 346.5299987792969,-12.42300033569336 346.5299987792969,-12.42300033569336 C346.5299987792969,-12.42300033569336 336.18499755859375,-12.42300033569336 336.18499755859375,-12.42300033569336z M351.65399169921875,0 C351.65399169921875,0 358.6629943847656,0 358.6629943847656,0 C358.6629943847656,0 344.45098876953125,-32.87099838256836 344.45098876953125,-32.87099838256836 C344.45098876953125,-32.87099838256836 338.31201171875,-32.87099838256836 338.31201171875,-32.87099838256836 C338.31201171875,-32.87099838256836 324.052001953125,0 324.052001953125,0 C324.052001953125,0 331.1090087890625,0 331.1090087890625,0 C331.1090087890625,0 333.8160095214844,-6.573999881744385 333.8160095214844,-6.573999881744385 C333.8160095214844,-6.573999881744385 348.9469909667969,-6.573999881744385 348.9469909667969,-6.573999881744385 C348.9469909667969,-6.573999881744385 351.65399169921875,0 351.65399169921875,0z"></path></g><g opacity="1" transform="matrix(1,0,0,1,0,0)"><path fill="rgb(235,235,235)" fill-opacity="1" d=" M317.843994140625,-32.87099838256836 C317.843994140625,-32.87099838256836 311.1730041503906,-32.87099838256836 311.1730041503906,-32.87099838256836 C311.1730041503906,-32.87099838256836 311.1730041503906,-12.567999839782715 311.1730041503906,-12.567999839782715 C311.1730041503906,-10.343999862670898 310.625,-8.621000289916992 309.52899169921875,-7.395999908447266 C308.4330139160156,-6.171000003814697 307.0159912109375,-5.559000015258789 305.2760009765625,-5.559000015258789 C303.5039978027344,-5.559000015258789 302.0450134277344,-6.001999855041504 300.9010009765625,-6.888000011444092 C299.7569885253906,-7.77400016784668 299.1520080566406,-9.088000297546387 299.0880126953125,-10.82800006866455 C299.0880126953125,-10.82800006866455 292.4169921875,-10.82800006866455 292.4169921875,-10.82800006866455 C292.5780029296875,-7.250999927520752 293.8030090332031,-4.454999923706055 296.09100341796875,-2.440999984741211 C298.3789978027344,-0.4269999861717224 301.2950134277344,0.5799999833106995 304.8399963378906,0.5799999833106995 C308.9010009765625,0.5799999833106995 312.0840148925781,-0.5400000214576721 314.38800048828125,-2.7799999713897705 C316.6919860839844,-5.019999980926514 317.843994140625,-8.218000411987305 317.843994140625,-12.375 C317.843994140625,-12.375 317.843994140625,-32.87099838256836 317.843994140625,-32.87099838256836z"></path></g><g opacity="1" transform="matrix(1,0,0,1,0,0)"><path fill="rgb(235,235,235)" fill-opacity="1" d=" M277.6709899902344,-32.87099838256836 C277.6709899902344,-32.87099838256836 277.6709899902344,-11.649999618530273 277.6709899902344,-11.649999618530273 C277.6709899902344,-11.649999618530273 259.68798828125,-32.87099838256836 259.68798828125,-32.87099838256836 C259.68798828125,-32.87099838256836 254.80599975585938,-32.87099838256836 254.80599975585938,-32.87099838256836 C254.80599975585938,-32.87099838256836 254.80599975585938,0 254.80599975585938,0 C254.80599975585938,0 261.3800048828125,0 261.3800048828125,0 C261.3800048828125,0 261.3800048828125,-20.641000747680664 261.3800048828125,-20.641000747680664 C261.3800048828125,-20.641000747680664 279.16900634765625,0 279.16900634765625,0 C279.16900634765625,0 284.2449951171875,0 284.2449951171875,0 C284.2449951171875,0 284.2449951171875,-32.87099838256836 284.2449951171875,-32.87099838256836 C284.2449951171875,-32.87099838256836 277.6709899902344,-32.87099838256836 277.6709899902344,-32.87099838256836z"></path></g><g opacity="1" transform="matrix(1,0,0,1,0,0)"><path fill="rgb(235,235,235)" fill-opacity="1" d=" M236.99899291992188,-32.87099838256836 C236.99899291992188,-32.87099838256836 236.99899291992188,0 236.99899291992188,0 C236.99899291992188,0 243.572998046875,0 243.572998046875,0 C243.572998046875,0 243.572998046875,-32.87099838256836 243.572998046875,-32.87099838256836 C243.572998046875,-32.87099838256836 236.99899291992188,-32.87099838256836 236.99899291992188,-32.87099838256836z"></path></g><g opacity="1" transform="matrix(1,0,0,1,0,0)"><path fill="rgb(235,235,235)" fill-opacity="1" d=" M219.3520050048828,-32.87099838256836 C219.3520050048828,-32.87099838256836 219.3520050048828,-11.649999618530273 219.3520050048828,-11.649999618530273 C219.3520050048828,-11.649999618530273 201.36900329589844,-32.87099838256836 201.36900329589844,-32.87099838256836 C201.36900329589844,-32.87099838256836 196.48699951171875,-32.87099838256836 196.48699951171875,-32.87099838256836 C196.48699951171875,-32.87099838256836 196.48699951171875,0 196.48699951171875,0 C196.48699951171875,0 203.06100463867188,0 203.06100463867188,0 C203.06100463867188,0 203.06100463867188,-20.641000747680664 203.06100463867188,-20.641000747680664 C203.06100463867188,-20.641000747680664 220.85000610351562,0 220.85000610351562,0 C220.85000610351562,0 225.92599487304688,0 225.92599487304688,0 C225.92599487304688,0 225.92599487304688,-32.87099838256836 225.92599487304688,-32.87099838256836 C225.92599487304688,-32.87099838256836 219.3520050048828,-32.87099838256836 219.3520050048828,-32.87099838256836z"></path></g><g opacity="1" transform="matrix(1,0,0,1,0,0)"><path fill="rgb(235,235,235)" fill-opacity="1" d=" M187.0570068359375,-30.64699935913086 C187.0570068359375,-30.64699935913086 187.0570068359375,-32.87099838256836 187.0570068359375,-32.87099838256836 C187.0570068359375,-32.87099838256836 164.6269989013672,-32.87099838256836 164.6269989013672,-32.87099838256836 C164.6269989013672,-32.87099838256836 164.6269989013672,0 164.6269989013672,0 C164.6269989013672,0 187.0570068359375,0 187.0570068359375,0 C187.0570068359375,0 187.0570068359375,-2.2720000743865967 187.0570068359375,-2.2720000743865967 C187.0570068359375,-2.2720000743865967 167.04400634765625,-2.2720000743865967 167.04400634765625,-2.2720000743865967 C167.04400634765625,-2.2720000743865967 167.04400634765625,-15.274999618530273 167.04400634765625,-15.274999618530273 C167.04400634765625,-15.274999618530273 185.1230010986328,-15.274999618530273 185.1230010986328,-15.274999618530273 C185.1230010986328,-15.274999618530273 185.1230010986328,-17.499000549316406 185.1230010986328,-17.499000549316406 C185.1230010986328,-17.499000549316406 167.04400634765625,-17.499000549316406 167.04400634765625,-17.499000549316406 C167.04400634765625,-17.499000549316406 167.04400634765625,-30.64699935913086 167.04400634765625,-30.64699935913086 C167.04400634765625,-30.64699935913086 187.0570068359375,-30.64699935913086 187.0570068359375,-30.64699935913086z"></path></g><g opacity="1" transform="matrix(1,0,0,1,0,0)"><path fill="rgb(235,235,235)" fill-opacity="1" d=" M140.1750030517578,-33.45100021362305 C136.75900268554688,-33.45100021362305 134.00399780273438,-32.637001037597656 131.90899658203125,-31.010000228881836 C129.81399536132812,-29.382999420166016 128.76699829101562,-27.21500015258789 128.76699829101562,-24.507999420166016 C128.76699829101562,-22.381000518798828 129.4669952392578,-20.617000579833984 130.86900329589844,-19.21500015258789 C132.27099609375,-17.812999725341797 134.3260040283203,-16.854999542236328 137.0330047607422,-16.339000701904297 C137.0330047607422,-16.339000701904297 143.5590057373047,-15.081999778747559 143.5590057373047,-15.081999778747559 C145.81500244140625,-14.663000106811523 147.51499938964844,-13.913999557495117 148.65899658203125,-12.833999633789062 C149.80299377441406,-11.753999710083008 150.375,-10.425000190734863 150.375,-8.845999717712402 C150.375,-6.622000217437744 149.51199340820312,-4.857999801635742 147.78799438476562,-3.552999973297119 C146.06399536132812,-2.247999906539917 143.76800537109375,-1.5950000286102295 140.89999389648438,-1.5950000286102295 C134.35800170898438,-1.5950000286102295 130.63499450683594,-4.5279998779296875 129.73300170898438,-10.392999649047852 C129.73300170898438,-10.392999649047852 127.26799774169922,-10.392999649047852 127.26799774169922,-10.392999649047852 C127.71900177001953,-6.8480000495910645 129.10499572753906,-4.132999897003174 131.4250030517578,-2.247999906539917 C133.7449951171875,-0.3630000054836273 136.87100219726562,0.5799999833106995 140.80299377441406,0.5799999833106995 C144.41200256347656,0.5799999833106995 147.3209991455078,-0.2980000078678131 149.5290069580078,-2.053999900817871 C151.73699951171875,-3.809999942779541 152.83999633789062,-6.15500020980835 152.83999633789062,-9.088000297546387 C152.83999633789062,-13.567000389099121 149.89100646972656,-16.339000701904297 143.99400329589844,-17.402000427246094 C143.99400329589844,-17.402000427246094 137.9510040283203,-18.611000061035156 137.9510040283203,-18.611000061035156 C133.53599548339844,-19.41699981689453 131.32899475097656,-21.39900016784668 131.32899475097656,-24.55699920654297 C131.32899475097656,-26.652000427246094 132.14300537109375,-28.30299949645996 133.77000427246094,-29.51099967956543 C135.39700317382812,-30.7189998626709 137.58099365234375,-31.323999404907227 140.32000732421875,-31.323999404907227 C146.08900451660156,-31.323999404907227 149.44000244140625,-28.988000869750977 150.375,-24.315000534057617 C150.375,-24.315000534057617 152.79200744628906,-24.315000534057617 152.79200744628906,-24.315000534057617 C152.3730010986328,-27.24799919128418 151.052001953125,-29.503999710083008 148.8280029296875,-31.08300018310547 C146.60400390625,-32.6619987487793 143.72000122070312,-33.45100021362305 140.1750030517578,-33.45100021362305z"></path></g><g opacity="1" transform="matrix(1,0,0,1,0,0)"><path fill="rgb(235,235,235)" fill-opacity="1" d=" M116.5770034790039,-32.87099838256836 C116.5770034790039,-32.87099838256836 114.16000366210938,-32.87099838256836 114.16000366210938,-32.87099838256836 C114.16000366210938,-32.87099838256836 114.16000366210938,-13.729000091552734 114.16000366210938,-13.729000091552734 C114.16000366210938,-10.24899959564209 113.11299896240234,-7.372000217437744 111.01799774169922,-5.099999904632568 C108.9229965209961,-2.828000068664551 106.18399810791016,-1.6920000314712524 102.80000305175781,-1.6920000314712524 C99.447998046875,-1.6920000314712524 96.7249984741211,-2.828000068664551 94.62999725341797,-5.099999904632568 C92.53500366210938,-7.372000217437744 91.48799896240234,-10.24899959564209 91.48799896240234,-13.729000091552734 C91.48799896240234,-13.729000091552734 91.48799896240234,-32.87099838256836 91.48799896240234,-32.87099838256836 C91.48799896240234,-32.87099838256836 89.07099914550781,-32.87099838256836 89.07099914550781,-32.87099838256836 C89.07099914550781,-32.87099838256836 89.07099914550781,-13.729000091552734 89.07099914550781,-13.729000091552734 C89.07099914550781,-9.539999961853027 90.33599853515625,-6.10699987411499 92.86599731445312,-3.431999921798706 C95.39600372314453,-0.7570000290870667 98.70700073242188,0.5799999833106995 102.80000305175781,0.5799999833106995 C106.89299774169922,0.5799999833106995 110.21199798583984,-0.7490000128746033 112.75800323486328,-3.4079999923706055 C115.30400085449219,-6.066999912261963 116.5770034790039,-9.506999969482422 116.5770034790039,-13.729000091552734 C116.5770034790039,-13.729000091552734 116.5770034790039,-32.87099838256836 116.5770034790039,-32.87099838256836z"></path></g><g opacity="1" transform="matrix(1,0,0,1,0,0)"><path fill="rgb(235,235,235)" fill-opacity="1" d=" M60.52799987792969,-1.7400000095367432 C56.435001373291016,-1.7400000095367432 52.97100067138672,-3.1659998893737793 50.1349983215332,-6.01800012588501 C47.29899978637695,-8.869999885559082 45.88100051879883,-12.343000411987305 45.88100051879883,-16.43600082397461 C45.88100051879883,-20.52899932861328 47.29899978637695,-24.009000778198242 50.1349983215332,-26.87700080871582 C52.97100067138672,-29.7450008392334 56.435001373291016,-31.179000854492188 60.52799987792969,-31.179000854492188 C64.62100219726562,-31.179000854492188 68.08499908447266,-29.7450008392334 70.9209976196289,-26.87700080871582 C73.75700378417969,-24.009000778198242 75.17500305175781,-20.52899932861328 75.17500305175781,-16.43600082397461 C75.17500305175781,-12.343000411987305 73.75700378417969,-8.869999885559082 70.9209976196289,-6.01800012588501 C68.08499908447266,-3.1659998893737793 64.62100219726562,-1.7400000095367432 60.52799987792969,-1.7400000095367432z M60.52799987792969,-33.45100021362305 C55.79100036621094,-33.45100021362305 51.75400161743164,-31.798999786376953 48.41899871826172,-28.496000289916992 C45.08399963378906,-25.19300079345703 43.415000915527344,-21.17300033569336 43.415000915527344,-16.43600082397461 C43.415000915527344,-11.699000358581543 45.08399963378906,-7.677999973297119 48.41899871826172,-4.375 C51.75400161743164,-1.0720000267028809 55.79100036621094,0.5799999833106995 60.52799987792969,0.5799999833106995 C65.26499938964844,0.5799999833106995 69.302001953125,-1.0720000267028809 72.63700103759766,-4.375 C75.97200012207031,-7.677999973297119 77.63999938964844,-11.699000358581543 77.63999938964844,-16.43600082397461 C77.63999938964844,-21.17300033569336 75.97200012207031,-25.19300079345703 72.63700103759766,-28.496000289916992 C69.302001953125,-31.798999786376953 65.26499938964844,-33.45100021362305 60.52799987792969,-33.45100021362305z"></path></g><g opacity="1" transform="matrix(1,0,0,1,0,0)"><path fill="rgb(235,235,235)" fill-opacity="1" d=" M28.858999252319336,-32.87099838256836 C28.858999252319336,-32.87099838256836 28.858999252319336,-17.451000213623047 28.858999252319336,-17.451000213623047 C28.858999252319336,-17.451000213623047 7.443999767303467,-17.451000213623047 7.443999767303467,-17.451000213623047 C7.443999767303467,-17.451000213623047 7.443999767303467,-32.87099838256836 7.443999767303467,-32.87099838256836 C7.443999767303467,-32.87099838256836 5.0269999504089355,-32.87099838256836 5.0269999504089355,-32.87099838256836 C5.0269999504089355,-32.87099838256836 5.0269999504089355,0 5.0269999504089355,0 C5.0269999504089355,0 7.443999767303467,0 7.443999767303467,0 C7.443999767303467,0 7.443999767303467,-15.22700023651123 7.443999767303467,-15.22700023651123 C7.443999767303467,-15.22700023651123 28.858999252319336,-15.22700023651123 28.858999252319336,-15.22700023651123 C28.858999252319336,-15.22700023651123 28.858999252319336,0 28.858999252319336,0 C28.858999252319336,0 31.275999069213867,0 31.275999069213867,0 C31.275999069213867,0 31.275999069213867,-32.87099838256836 31.275999069213867,-32.87099838256836 C31.275999069213867,-32.87099838256836 28.858999252319336,-32.87099838256836 28.858999252319336,-32.87099838256836z"></path></g></g></g></svg>