<svg id="Layer_1" data-name="Layer 1" xmlns="http://www.w3.org/2000/svg" viewBox="0 0 595.28 276.96"><defs><style>.cls-1{fill:#fff;fill-rule:evenodd;}</style></defs><g id="house_with_teal_check" data-name="house with teal check"><path class="cls-1" d="M322.2,45l-12.3,7.09L347.79,74c7,4.07,6.85,3,6.79,11.26v59.51h.14v3.44a3.47,3.47,0,0,1-3.46,3.46H239.34a3.47,3.47,0,0,1-3.46-3.46v-2.34c0-.81,0-1.73,0-2.77V94.92L223.49,102v1.49a13.49,13.49,0,0,0,.14,1.82V152.9c-.11,6.06,10.9,11,10.9,11H355.94s11-4.9,11-10.94V74.38a6.19,6.19,0,0,0-3.09-5.32L322.2,45Z"/><path class="cls-1" d="M223.47,85V44.51a.39.39,0,0,1,.39-.35h11.61a.24.24,0,0,1,.25.34V63.68l56.43-32.52a6.11,6.11,0,0,1,6.17,0l9.17,5.3Z"/></g></svg>